<?xml version="1.0" encoding="UTF-8" standalone="no"?>
<svg
   width="81.279999mm"
   height="128.5mm"
   viewBox="0 0 81.279997 128.5"
   version="1.1"
   id="svg43"
   sodipodi:docname="EntropyPuddle5.svg"
   inkscape:version="1.4.3 (0d15f75, 2025-12-25)"
   xml:space="preserve"
   xmlns:inkscape="http://www.inkscape.org/namespaces/inkscape"
   xmlns:sodipodi="http://sodipodi.sourceforge.net/DTD/sodipodi-0.dtd"
   xmlns="http://www.w3.org/2000/svg"
   xmlns:svg="http://www.w3.org/2000/svg"><defs
     id="defs1"><rect
       x="298"
       y="27.5"
       width="265.5"
       height="58.5"
       id="rect4" /><pattern
       id="EMFhbasepattern"
       patternUnits="userSpaceOnUse"
       width="6"
       height="6"
       x="0"
       y="0" /><style
       id="style1-2">.cls-1{fill:none;stroke:#020202;stroke-miterlimit:10;stroke-width:1.86px;}</style></defs><sodipodi:namedview
     id="namedview43"
     pagecolor="#ffffff"
     bordercolor="#000000"
     borderopacity="0.25"
     inkscape:showpageshadow="2"
     inkscape:pageopacity="0.0"
     inkscape:pagecheckerboard="0"
     inkscape:deskcolor="#d1d1d1"
     inkscape:document-units="mm"
     inkscape:lockguides="true"
     inkscape:zoom="2"
     inkscape:cx="134"
     inkscape:cy="343.5"
     inkscape:window-width="3840"
     inkscape:window-height="2054"
     inkscape:window-x="-11"
     inkscape:window-y="3"
     inkscape:window-maximized="1"
     inkscape:current-layer="svg43"
     showguides="false" /><path
     id="background"
     style="display:inline;fill:#0d1117;fill-opacity:1;stroke-width:0.999998;stroke-dasharray:none"
     d="M 0,128.5 6.3252918e-7,0 81.28,6.3238192e-7 V 128.5 Z"
     inkscape:label="start github" /><path
     id="path4"
     style="display:none;fill:#1c1c1c;fill-opacity:1;stroke-width:0.999998;stroke-dasharray:none"
     d="M 0,128.5 6.3252918e-7,0 81.28,6.3238192e-7 V 128.5 Z"
     inkscape:label="start habamax" /><circle
     style="display:inline;fill:#2ea043;fill-opacity:1;stroke:none;stroke-width:0.564999;stroke-linecap:round;stroke-linejoin:round;stroke-dasharray:none;stroke-opacity:1"
     id="circle2"
     cx="51.639999"
     cy="113.115"
     r="4.5"
     inkscape:label="cv output border" /><circle
     style="display:inline;fill:#2ea043;fill-opacity:1;stroke:none;stroke-width:0.564999;stroke-linecap:round;stroke-linejoin:round;stroke-dasharray:none;stroke-opacity:1"
     id="circle1-4"
     cx="40.639999"
     cy="113.115"
     r="4.5"
     inkscape:label="gate output border" /><circle
     style="display:inline;fill:#2ea043;fill-opacity:1;stroke:none;stroke-width:0.564999;stroke-linecap:round;stroke-linejoin:round;stroke-dasharray:none;stroke-opacity:1"
     id="circle1"
     cx="29.639999"
     cy="113.115"
     r="4.5"
     inkscape:label="trigger output border" /><circle
     style="display:inline;fill:#2ea043;fill-opacity:1;stroke:none;stroke-width:0.564999;stroke-linecap:round;stroke-linejoin:round;stroke-dasharray:none;stroke-opacity:1"
     id="circle46-1"
     cx="18.639999"
     cy="113.115"
     r="4.5"
     inkscape:label="end of sequence border" /><g
     id="g11"
     inkscape:label="labels - jetbrains mono semibold"><path
       style="display:inline;fill:none;fill-opacity:1;stroke:#f0f6fc;stroke-width:0.5;stroke-linecap:round;stroke-linejoin:round;stroke-dasharray:none;stroke-opacity:1;paint-order:stroke fill markers"
       d="m 49.966197,94.307 h 2.092369 a 1.2554217,1.5 0 0 0 1.255422,-1.5 v -3 a 1.2554217,1.5 0 0 0 -1.255422,-1.5 h -2.092369"
       id="path71"
       sodipodi:nodetypes="cssssc"
       inkscape:label="offset" /><ellipse
       style="display:inline;fill:#f0f6fc;fill-opacity:1;stroke:#f0f6fc;stroke-width:0.400001;stroke-linecap:round;stroke-linejoin:bevel;stroke-dasharray:none;stroke-opacity:1"
       id="path67"
       cx="40.640095"
       cy="91.307404"
       rx="1.2999995"
       ry="1.2997745"
       inkscape:label="filter" /><path
       style="display:inline;fill:none;fill-opacity:1;stroke:#f0f6fc;stroke-width:0.5;stroke-linecap:round;stroke-linejoin:round;stroke-dasharray:none;stroke-opacity:1;paint-order:stroke fill markers"
       d="m 31.313988,88.307 h -2.092369 a 1.2554217,1.5 0 0 0 -1.255422,1.5 v 3 a 1.2554217,1.5 0 0 0 1.255422,1.5 h 2.092369"
       id="path65"
       sodipodi:nodetypes="cssssc"
       inkscape:label="start" /><text
       xml:space="preserve"
       style="font-style:normal;font-variant:normal;font-weight:600;font-stretch:normal;font-size:3.52778px;font-family:'JetBrains Mono';-inkscape-font-specification:'JetBrains Mono, Semi-Bold';font-variant-ligatures:normal;font-variant-caps:normal;font-variant-numeric:normal;font-variant-east-asian:normal;writing-mode:lr-tb;direction:ltr;display:inline;fill:#f0f6fc;stroke-width:0.499999;stroke-linecap:round;stroke-linejoin:round;fill-opacity:1"
       x="49.459831"
       y="123.76744"
       id="text55-9"
       inkscape:label="cv"><tspan
         sodipodi:role="line"
         id="tspan55-4"
         style="font-style:normal;font-variant:normal;font-weight:600;font-stretch:normal;font-size:3.52778px;font-family:'JetBrains Mono';-inkscape-font-specification:'JetBrains Mono, Semi-Bold';font-variant-ligatures:normal;font-variant-caps:normal;font-variant-numeric:normal;font-variant-east-asian:normal;stroke-width:0.5;fill:#f0f6fc;fill-opacity:1"
         x="49.459831"
         y="123.76744">cv</tspan></text><text
       xml:space="preserve"
       style="font-style:normal;font-variant:normal;font-weight:600;font-stretch:normal;font-size:3.52778px;font-family:'JetBrains Mono';-inkscape-font-specification:'JetBrains Mono, Semi-Bold';font-variant-ligatures:normal;font-variant-caps:normal;font-variant-numeric:normal;font-variant-east-asian:normal;writing-mode:lr-tb;direction:ltr;display:inline;fill:#f0f6fc;stroke-width:0.499999;stroke-linecap:round;stroke-linejoin:round;fill-opacity:1"
       x="36.401367"
       y="123.76744"
       id="text9-8"
       inkscape:label="gate"><tspan
         sodipodi:role="line"
         id="tspan1-8"
         style="font-style:normal;font-variant:normal;font-weight:600;font-stretch:normal;font-size:3.52778px;font-family:'JetBrains Mono';-inkscape-font-specification:'JetBrains Mono, Semi-Bold';font-variant-ligatures:normal;font-variant-caps:normal;font-variant-numeric:normal;font-variant-east-asian:normal;stroke-width:0.5;fill:#f0f6fc;fill-opacity:1"
         x="36.401367"
         y="123.76744">gate</tspan></text><text
       xml:space="preserve"
       style="font-style:normal;font-variant:normal;font-weight:600;font-stretch:normal;font-size:3.52778px;font-family:'JetBrains Mono';-inkscape-font-specification:'JetBrains Mono, Semi-Bold';font-variant-ligatures:normal;font-variant-caps:normal;font-variant-numeric:normal;font-variant-east-asian:normal;writing-mode:lr-tb;direction:ltr;display:inline;fill:#f0f6fc;stroke-width:0.499999;stroke-linecap:round;stroke-linejoin:round;fill-opacity:1"
       x="26.542608"
       y="123.76744"
       id="text54-2"
       inkscape:label="trigger"><tspan
         sodipodi:role="line"
         id="tspan54-4"
         style="font-style:normal;font-variant:normal;font-weight:600;font-stretch:normal;font-size:3.52778px;font-family:'JetBrains Mono';-inkscape-font-specification:'JetBrains Mono, Semi-Bold';font-variant-ligatures:normal;font-variant-caps:normal;font-variant-numeric:normal;font-variant-east-asian:normal;stroke-width:0.5;fill:#f0f6fc;fill-opacity:1"
         x="26.542608"
         y="123.76744">trg</tspan></text><text
       xml:space="preserve"
       style="font-style:normal;font-variant:normal;font-weight:600;font-stretch:normal;font-size:3.52778px;font-family:'JetBrains Mono';-inkscape-font-specification:'JetBrains Mono, Semi-Bold';font-variant-ligatures:normal;font-variant-caps:normal;font-variant-numeric:normal;font-variant-east-asian:normal;writing-mode:lr-tb;direction:ltr;display:inline;fill:#f0f6fc;stroke-width:0.499999;stroke-linecap:round;stroke-linejoin:round;fill-opacity:1"
       x="15.459703"
       y="123.76744"
       id="text53-5"
       inkscape:label="end of sequence"><tspan
         sodipodi:role="line"
         id="tspan53-5"
         style="font-style:normal;font-variant:normal;font-weight:600;font-stretch:normal;font-size:3.52778px;font-family:'JetBrains Mono';-inkscape-font-specification:'JetBrains Mono, Semi-Bold';font-variant-ligatures:normal;font-variant-caps:normal;font-variant-numeric:normal;font-variant-east-asian:normal;stroke-width:0.5;fill:#f0f6fc;fill-opacity:1"
         x="15.459703"
         y="123.76744">eos</tspan></text><text
       xml:space="preserve"
       style="font-style:normal;font-variant:normal;font-weight:600;font-stretch:normal;font-size:3.52778px;font-family:'JetBrains Mono';-inkscape-font-specification:'JetBrains Mono, Semi-Bold';font-variant-ligatures:normal;font-variant-caps:normal;font-variant-numeric:normal;font-variant-east-asian:normal;writing-mode:lr-tb;direction:ltr;display:inline;fill:#f0f6fc;stroke-width:0.499999;stroke-linecap:round;stroke-linejoin:round;fill-opacity:1"
       x="70.429718"
       y="92.368858"
       id="text49-1"
       inkscape:label="randomize"><tspan
         sodipodi:role="line"
         id="tspan49-7"
         style="font-style:normal;font-variant:normal;font-weight:600;font-stretch:normal;font-size:3.52778px;font-family:'JetBrains Mono';-inkscape-font-specification:'JetBrains Mono, Semi-Bold';font-variant-ligatures:normal;font-variant-caps:normal;font-variant-numeric:normal;font-variant-east-asian:normal;stroke-width:0.5;fill:#f0f6fc;fill-opacity:1"
         x="70.429718"
         y="92.368858">rnd</tspan></text><text
       xml:space="preserve"
       style="font-style:normal;font-variant:normal;font-weight:600;font-stretch:normal;font-size:3.52778px;font-family:'JetBrains Mono';-inkscape-font-specification:'JetBrains Mono, Semi-Bold';font-variant-ligatures:normal;font-variant-caps:normal;font-variant-numeric:normal;font-variant-east-asian:normal;writing-mode:lr-tb;direction:ltr;display:inline;fill:#f0f6fc;stroke-width:0.499999;stroke-linecap:round;stroke-linejoin:round;fill-opacity:1"
       x="59.412079"
       y="92.280663"
       id="text48-1"
       inkscape:label="reset"><tspan
         sodipodi:role="line"
         id="tspan48-1"
         style="font-style:normal;font-variant:normal;font-weight:600;font-stretch:normal;font-size:3.52778px;font-family:'JetBrains Mono';-inkscape-font-specification:'JetBrains Mono, Semi-Bold';font-variant-ligatures:normal;font-variant-caps:normal;font-variant-numeric:normal;font-variant-east-asian:normal;stroke-width:0.5;fill:#f0f6fc;fill-opacity:1"
         x="59.412079"
         y="92.280663">rst</tspan></text><text
       xml:space="preserve"
       style="font-style:normal;font-variant:normal;font-weight:600;font-stretch:normal;font-size:3.52778px;font-family:'JetBrains Mono';-inkscape-font-specification:'JetBrains Mono, Semi-Bold';font-variant-ligatures:normal;font-variant-caps:normal;font-variant-numeric:normal;font-variant-east-asian:normal;writing-mode:lr-tb;direction:ltr;display:inline;fill:#f0f6fc;stroke-width:0.499999;stroke-linecap:round;stroke-linejoin:round;fill-opacity:1"
       x="15.42619"
       y="92.368858"
       id="text47-5"
       inkscape:label="run"><tspan
         sodipodi:role="line"
         id="tspan47-2"
         style="font-style:normal;font-variant:normal;font-weight:600;font-stretch:normal;font-size:3.52778px;font-family:'JetBrains Mono';-inkscape-font-specification:'JetBrains Mono, Semi-Bold';font-variant-ligatures:normal;font-variant-caps:normal;font-variant-numeric:normal;font-variant-east-asian:normal;stroke-width:0.5;fill:#f0f6fc;fill-opacity:1"
         x="15.42619"
         y="92.368858">run</tspan></text><text
       xml:space="preserve"
       style="font-style:normal;font-variant:normal;font-weight:600;font-stretch:normal;font-size:3.52778px;font-family:'JetBrains Mono';-inkscape-font-specification:'JetBrains Mono, Semi-Bold';font-variant-ligatures:normal;font-variant-caps:normal;font-variant-numeric:normal;font-variant-east-asian:normal;writing-mode:lr-tb;direction:ltr;display:inline;fill:#f0f6fc;stroke-width:0.499999;stroke-linecap:round;stroke-linejoin:round;fill-opacity:1"
       x="4.3838577"
       y="92.368858"
       id="text46-7"
       inkscape:label="clock"><tspan
         sodipodi:role="line"
         id="tspan46-6"
         style="font-style:normal;font-variant:normal;font-weight:600;font-stretch:normal;font-size:3.52778px;font-family:'JetBrains Mono';-inkscape-font-specification:'JetBrains Mono, Semi-Bold';font-variant-ligatures:normal;font-variant-caps:normal;font-variant-numeric:normal;font-variant-east-asian:normal;stroke-width:0.5;fill:#f0f6fc;fill-opacity:1"
         x="4.3838577"
         y="92.368858">clk</tspan></text><path
       style="font-weight:600;font-size:3.52778px;font-family:'JetBrains Mono';-inkscape-font-specification:'JetBrains Mono, Semi-Bold';fill:#f0f6fc;stroke-width:0.5;stroke-linecap:round;stroke-linejoin:round;fill-opacity:1"
       d="m 50.546387,123.80272 q -0.363361,0 -0.582083,-0.20108 -0.218723,-0.20109 -0.218723,-0.55034 v -0.508 q 0,-0.34925 0.218723,-0.55033 0.218722,-0.20109 0.582083,-0.20109 0.352779,0 0.564445,0.18345 0.211667,0.18344 0.225778,0.50094 h -0.377472 q -0.01058,-0.1658 -0.123473,-0.25752 -0.109361,-0.0917 -0.289278,-0.0917 -0.194027,0 -0.306916,0.10936 -0.112889,0.10584 -0.112889,0.30339 v 0.51153 q 0,0.20108 0.112889,0.31045 0.112889,0.10583 0.306916,0.10583 0.183445,0 0.292806,-0.0917 0.109361,-0.0917 0.119945,-0.26106 h 0.377472 q -0.01411,0.3175 -0.225778,0.50447 -0.211666,0.18345 -0.564445,0.18345 z m 1.845031,-0.0353 -0.656167,-1.94028 h 0.402167 l 0.398639,1.24178 q 0.03528,0.10936 0.0635,0.21872 0.02822,0.10584 0.04233,0.17639 0.01411,-0.0705 0.03528,-0.17639 0.02469,-0.10936 0.05997,-0.21872 l 0.395112,-1.24178 h 0.402167 l -0.65264,1.94028 z"
       id="text11"
       inkscape:label="cv"
       aria-label="cv" /><path
       style="font-weight:600;font-size:3.52778px;font-family:'JetBrains Mono';-inkscape-font-specification:'JetBrains Mono, Semi-Bold';fill:#f0f6fc;stroke-width:0.5;stroke-linecap:round;stroke-linejoin:round;fill-opacity:1"
       d="m 36.951701,124.40244 v -0.32808 h 0.546806 q 0.15875,0 0.250472,-0.0882 0.09172,-0.0882 0.09172,-0.23989 v -0.14463 l 0.0071,-0.32456 q -0.04586,0.17286 -0.183445,0.26811 -0.134055,0.0952 -0.335139,0.0952 -0.299861,0 -0.472722,-0.19403 -0.172861,-0.19403 -0.172861,-0.53269 v -0.39159 q 0,-0.33513 0.172861,-0.53269 0.172861,-0.19756 0.472722,-0.19756 0.201084,0 0.335139,0.0952 0.134056,0.0953 0.179917,0.26812 v -0.32809 h 0.373945 v 1.92617 q 0,0.29986 -0.194028,0.47272 -0.1905,0.17639 -0.522111,0.17639 z m 0.500945,-1.08303 q 0.179916,0 0.282222,-0.10936 0.105833,-0.11289 0.105833,-0.31397 v -0.35278 q 0,-0.19755 -0.105833,-0.30692 -0.102306,-0.11288 -0.282222,-0.11288 -0.186973,0 -0.289278,0.10583 -0.09878,0.10583 -0.09878,0.28928 v 0.40216 q 0,0.18698 0.09878,0.29281 0.102305,0.10583 0.289278,0.10583 z m 1.929697,0.48331 q -0.296334,0 -0.472723,-0.16581 -0.172861,-0.16933 -0.172861,-0.44097 0,-0.27517 0.186972,-0.44097 0.186973,-0.16934 0.497417,-0.16934 h 0.536223 v -0.14111 q 0,-0.33514 -0.377473,-0.33514 -0.169333,0 -0.271639,0.0635 -0.102305,0.0635 -0.109361,0.17639 h -0.373945 q 0.01764,-0.24341 0.218723,-0.39864 0.201083,-0.15875 0.53975,-0.15875 0.359834,0 0.557389,0.17287 0.197556,0.16933 0.197556,0.47625 v 1.32644 h -0.373945 v -0.36336 h -0.0035 q -0.0247,0.18697 -0.176389,0.29281 -0.151695,0.10583 -0.402167,0.10583 z m 0.109361,-0.31397 q 0.215194,0 0.338667,-0.10231 0.127,-0.10583 0.127,-0.28222 v -0.25047 h -0.508 q -0.151695,0 -0.243417,0.0882 -0.08819,0.0882 -0.08819,0.22578 0,0.14816 0.09878,0.23636 0.09878,0.0847 0.275167,0.0847 z m 2.395364,0.27869 q -0.257528,0 -0.409223,-0.14817 -0.151694,-0.14816 -0.151694,-0.40216 v -1.04423 h -0.546806 v -0.34572 h 0.546806 v -0.5468 h 0.381 v 0.5468 h 0.783167 v 0.34572 h -0.783167 v 1.0407 q 0,0.0917 0.05292,0.15169 0.05292,0.0564 0.144639,0.0564 h 0.567972 v 0.34572 z m 1.922641,0.0353 q -0.356306,0 -0.5715,-0.20814 -0.215195,-0.20814 -0.215195,-0.56797 V 122.568 q 0,-0.35984 0.215195,-0.56798 0.215194,-0.20814 0.5715,-0.20814 0.239889,0 0.416278,0.0952 0.176389,0.0917 0.271639,0.26106 0.09878,0.16933 0.09878,0.39511 v 0.34925 h -1.206501 v 0.15875 q 0,0.20461 0.112889,0.3175 0.112889,0.11289 0.306917,0.11289 0.15875,0 0.264584,-0.0564 0.105833,-0.06 0.127,-0.16228 h 0.377472 q -0.0388,0.24694 -0.250472,0.39511 -0.208139,0.14464 -0.518584,0.14464 z m -0.419806,-1.25942 v 0.0811 h 0.839612 v -0.0847 q 0,-0.21519 -0.109361,-0.33161 -0.109361,-0.11641 -0.310445,-0.11641 -0.201083,0 -0.310444,0.11994 -0.109362,0.11642 -0.109362,0.33161 z"
       id="text12"
       inkscape:label="gate"
       aria-label="gate" /><path
       style="font-weight:600;font-size:3.52778px;font-family:'JetBrains Mono';-inkscape-font-specification:'JetBrains Mono, Semi-Bold';fill:#f0f6fc;stroke-width:0.5;stroke-linecap:round;stroke-linejoin:round;fill-opacity:1"
       d="m 27.79497,123.76744 q -0.257528,0 -0.409222,-0.14817 -0.151695,-0.14816 -0.151695,-0.40216 v -1.04423 h -0.546806 v -0.34572 h 0.546806 v -0.5468 h 0.381 v 0.5468 h 0.783168 v 0.34572 h -0.783168 v 1.0407 q 0,0.0917 0.05292,0.15169 0.05292,0.0564 0.144639,0.0564 h 0.567973 v 0.34572 z m 1.231197,0 v -1.94028 h 0.377472 v 0.381 0 q 0.02822,-0.19403 0.165806,-0.30339 0.137583,-0.11289 0.363361,-0.11289 0.299862,0 0.465667,0.18698 0.165806,0.18697 0.165806,0.52564 v 0.17286 h -0.381 v -0.16228 q 0,-0.39158 -0.384528,-0.39158 -0.1905,0 -0.292806,0.11288 -0.09878,0.10937 -0.09878,0.32103 v 1.21003 z m 2.300114,0.635 v -0.32808 h 0.546806 q 0.15875,0 0.250472,-0.0882 0.09172,-0.0882 0.09172,-0.23989 v -0.14463 l 0.0071,-0.32456 q -0.04586,0.17286 -0.183445,0.26811 -0.134055,0.0952 -0.335139,0.0952 -0.299861,0 -0.472722,-0.19403 -0.172862,-0.19403 -0.172862,-0.53269 v -0.39159 q 0,-0.33513 0.172862,-0.53269 0.172861,-0.19756 0.472722,-0.19756 0.201084,0 0.335139,0.0952 0.134056,0.0953 0.179917,0.26812 v -0.32809 h 0.373945 v 1.92617 q 0,0.29986 -0.194028,0.47272 -0.1905,0.17639 -0.522112,0.17639 z m 0.500945,-1.08303 q 0.179916,0 0.282222,-0.10936 0.105833,-0.11289 0.105833,-0.31397 v -0.35278 q 0,-0.19755 -0.105833,-0.30692 -0.102306,-0.11288 -0.282222,-0.11288 -0.186973,0 -0.289278,0.10583 -0.09878,0.10583 -0.09878,0.28928 v 0.40216 q 0,0.18698 0.09878,0.29281 0.102305,0.10583 0.289278,0.10583 z"
       id="text19"
       inkscape:label="trigger"
       aria-label="trg" /><path
       style="font-weight:600;font-size:3.52778px;font-family:'JetBrains Mono';-inkscape-font-specification:'JetBrains Mono, Semi-Bold';fill:#f0f6fc;stroke-width:0.5;stroke-linecap:round;stroke-linejoin:round;fill-opacity:1"
       d="m 16.518037,123.80272 q -0.356305,0 -0.5715,-0.20814 -0.215194,-0.20814 -0.215194,-0.56797 V 122.568 q 0,-0.35984 0.215194,-0.56798 0.215195,-0.20814 0.5715,-0.20814 0.23989,0 0.416279,0.0952 0.176389,0.0917 0.271639,0.26106 0.09878,0.16933 0.09878,0.39511 v 0.34925 h -1.2065 v 0.15875 q 0,0.20461 0.112889,0.3175 0.112889,0.11289 0.306916,0.11289 0.158751,0 0.264584,-0.0564 0.105833,-0.06 0.127,-0.16228 h 0.377473 q -0.03881,0.24694 -0.250473,0.39511 -0.208139,0.14464 -0.518584,0.14464 z m -0.419805,-1.25942 v 0.0811 h 0.839611 v -0.0847 q 0,-0.21519 -0.109361,-0.33161 -0.109361,-0.11641 -0.310445,-0.11641 -0.201083,0 -0.310444,0.11994 -0.109361,0.11642 -0.109361,0.33161 z m 2.536475,1.25589 q -0.359834,0 -0.575028,-0.20814 -0.211667,-0.20814 -0.211667,-0.56797 v -0.45156 q 0,-0.36336 0.211667,-0.56797 0.211667,-0.20814 0.575028,-0.20814 0.363361,0 0.575028,0.20814 0.211667,0.20461 0.211667,0.56797 v 0.45156 q 0,0.35983 -0.215195,0.56797 -0.211667,0.20814 -0.5715,0.20814 z m 0,-0.33514 q 0.1905,0 0.296333,-0.10583 0.109362,-0.10936 0.109362,-0.31045 v -0.50094 q 0,-0.20108 -0.109362,-0.30692 -0.105833,-0.10936 -0.296333,-0.10936 -0.1905,0 -0.299861,0.10936 -0.105834,0.10584 -0.105834,0.30692 v 0.50094 q 0,0.20109 0.105834,0.31045 0.109361,0.10583 0.299861,0.10583 z m 2.039058,0.33514 q -0.335139,0 -0.525639,-0.15169 -0.1905,-0.1517 -0.1905,-0.42334 h 0.377472 q 0,0.12347 0.0882,0.19403 0.08819,0.067 0.250472,0.067 h 0.155222 q 0.165806,0 0.257528,-0.067 0.09172,-0.0706 0.09172,-0.19756 0,-0.22225 -0.236362,-0.254 l -0.511528,-0.0705 q -0.215194,-0.0282 -0.331611,-0.16933 -0.116417,-0.14464 -0.116417,-0.37395 0,-0.26458 0.176389,-0.40922 0.179917,-0.14817 0.508001,-0.14817 h 0.15875 q 0.303389,0 0.490361,0.14464 0.1905,0.14464 0.201084,0.381 h -0.381001 q -0.0071,-0.0952 -0.09172,-0.15522 -0.08114,-0.0635 -0.218722,-0.0635 h -0.15875 q -0.151695,0 -0.236362,0.067 -0.08114,0.067 -0.08114,0.17639 0,0.18344 0.201084,0.21166 l 0.479778,0.0635 q 0.518584,0.0706 0.518584,0.5962 0,0.27869 -0.186973,0.43039 -0.186972,0.15169 -0.532695,0.15169 z"
       id="text14"
       inkscape:label="end of sequence"
       aria-label="eos" /><path
       style="font-weight:600;font-size:3.52778px;font-family:'JetBrains Mono';-inkscape-font-specification:'JetBrains Mono, Semi-Bold';fill:#f0f6fc;stroke-width:0.5;stroke-linecap:round;stroke-linejoin:round;fill-opacity:1"
       d="m 70.796607,92.368858 v -1.940279 h 0.377473 v 0.381001 0 q 0.02822,-0.194028 0.165805,-0.30339 0.137584,-0.112888 0.363362,-0.112888 0.299861,0 0.465667,0.186972 0.165805,0.186972 0.165805,0.525639 v 0.172861 h -0.381 v -0.162278 q 0,-0.391583 -0.384528,-0.391583 -0.1905,0 -0.292806,0.112889 -0.09878,0.109361 -0.09878,0.321028 v 1.210028 z m 2.046114,0 v -1.940279 h 0.377472 v 0.370417 0 q 0.02822,-0.1905 0.162278,-0.296333 0.137584,-0.109361 0.356306,-0.109361 0.289278,0 0.462139,0.186972 0.172862,0.183444 0.172862,0.497417 v 1.291167 h -0.381001 v -1.234723 q 0,-0.201083 -0.102305,-0.306917 -0.102306,-0.109361 -0.278695,-0.109361 -0.179917,0 -0.28575,0.112889 -0.102306,0.112889 -0.102306,0.313973 v 1.224139 z m 2.734031,0.03528 q -0.289278,0 -0.462139,-0.197556 -0.172862,-0.197555 -0.172862,-0.532694 V 91.12708 q 0,-0.338667 0.172862,-0.536223 0.172861,-0.197555 0.462139,-0.197555 0.208139,0 0.34925,0.105833 0.144639,0.105833 0.186972,0.296333 l -0.01058,-0.448028 v -0.553861 h 0.381 v 2.575279 h -0.377472 v -0.366889 q -0.03881,0.1905 -0.179917,0.296334 -0.137583,0.105833 -0.34925,0.105833 z m 0.134056,-0.331611 q 0.183444,0 0.28575,-0.109361 0.105833,-0.112889 0.105833,-0.317501 v -0.497417 q 0,-0.201083 -0.105833,-0.310444 -0.102306,-0.112889 -0.28575,-0.112889 -0.183445,0 -0.285751,0.09878 -0.102305,0.09525 -0.102305,0.306917 v 0.532694 q 0,0.215195 0.102305,0.313973 0.102306,0.09525 0.285751,0.09525 z"
       id="text15"
       inkscape:label="randomize"
       aria-label="rnd" /><path
       style="font-weight:600;font-size:3.52778px;font-family:'JetBrains Mono';-inkscape-font-specification:'JetBrains Mono, Semi-Bold';fill:#f0f6fc;stroke-width:0.5;stroke-linecap:round;stroke-linejoin:round;fill-opacity:1"
       d="m 59.778968,92.280663 v -1.940279 h 0.377472 v 0.381 0 q 0.02822,-0.194028 0.165806,-0.303389 0.137584,-0.112889 0.363361,-0.112889 0.299862,0 0.465667,0.186972 0.165806,0.186972 0.165806,0.525639 v 0.172861 h -0.381 v -0.162277 q 0,-0.391584 -0.384528,-0.391584 -0.1905,0 -0.292806,0.112889 -0.09878,0.109361 -0.09878,0.321028 v 1.210029 z m 2.730503,0.03175 q -0.335139,0 -0.525639,-0.151695 -0.1905,-0.151695 -0.1905,-0.423334 h 0.377472 q 0,0.123473 0.0882,0.194028 0.08819,0.06703 0.250472,0.06703 h 0.155222 q 0.165806,0 0.257528,-0.06703 0.09172,-0.07055 0.09172,-0.197555 0,-0.222251 -0.236362,-0.254001 l -0.511528,-0.07055 q -0.215194,-0.02822 -0.331611,-0.169334 -0.116417,-0.144639 -0.116417,-0.373944 0,-0.264584 0.176389,-0.409223 0.179917,-0.148167 0.508001,-0.148167 h 0.15875 q 0.303389,0 0.490361,0.144639 0.1905,0.144639 0.201084,0.381001 H 62.97161 q -0.0071,-0.09525 -0.09172,-0.155223 -0.08114,-0.0635 -0.218722,-0.0635 h -0.15875 q -0.151695,0 -0.236362,0.06703 -0.08114,0.06703 -0.08114,0.176389 0,0.183445 0.201084,0.211667 l 0.479778,0.0635 q 0.518584,0.07056 0.518584,0.596195 0,0.278694 -0.186973,0.430389 -0.186972,0.151695 -0.532695,0.151695 z m 2.388309,-0.03175 q -0.257528,0 -0.409223,-0.148167 -0.151694,-0.148167 -0.151694,-0.402167 v -1.044223 h -0.546806 v -0.345722 h 0.546806 v -0.546806 h 0.381 v 0.546806 h 0.783167 v 0.345722 h -0.783167 v 1.040695 q 0,0.09172 0.05292,0.151695 0.05292,0.05644 0.144639,0.05644 h 0.567972 v 0.345723 z"
       id="text16"
       inkscape:label="reset"
       aria-label="rst" /><path
       style="font-weight:600;font-size:3.52778px;font-family:'JetBrains Mono';-inkscape-font-specification:'JetBrains Mono, Semi-Bold';fill:#f0f6fc;stroke-width:0.5;stroke-linecap:round;stroke-linejoin:round;fill-opacity:1"
       d="m 15.79308,92.368858 v -1.940279 h 0.377472 v 0.381001 0 q 0.02822,-0.194028 0.165806,-0.30339 0.137583,-0.112888 0.363361,-0.112888 0.299861,0 0.465667,0.186972 0.165806,0.186972 0.165806,0.525639 v 0.172861 h -0.381001 v -0.162278 q 0,-0.391583 -0.384528,-0.391583 -0.1905,0 -0.292805,0.112889 -0.09878,0.109361 -0.09878,0.321028 v 1.210028 z m 2.804586,0.03528 q -0.352778,0 -0.560917,-0.201083 -0.204611,-0.204612 -0.204611,-0.553862 v -1.220612 h 0.381 v 1.217084 q 0,0.197556 0.102306,0.313973 0.102305,0.112889 0.282222,0.112889 0.183445,0 0.28575,-0.112889 0.105834,-0.116417 0.105834,-0.313973 v -1.217084 h 0.381 v 1.220612 q 0,0.34925 -0.211667,0.553862 -0.208139,0.201083 -0.560917,0.201083 z m 1.358197,-0.03528 v -1.940279 h 0.377472 v 0.370417 0 q 0.02822,-0.1905 0.162278,-0.296333 0.137584,-0.109361 0.356306,-0.109361 0.289278,0 0.462139,0.186972 0.172861,0.183444 0.172861,0.497417 v 1.291167 h -0.381 v -1.234723 q 0,-0.201083 -0.102306,-0.306917 -0.102305,-0.109361 -0.278694,-0.109361 -0.179917,0 -0.28575,0.112889 -0.102306,0.112889 -0.102306,0.313973 v 1.224139 z"
       id="text17"
       inkscape:label="run"
       aria-label="run" /><path
       style="font-weight:600;font-size:3.52778px;font-family:'JetBrains Mono';-inkscape-font-specification:'JetBrains Mono, Semi-Bold';fill:#f0f6fc;stroke-width:0.5;stroke-linecap:round;stroke-linejoin:round;fill-opacity:1"
       d="m 5.470414,92.404136 q -0.3633614,0 -0.5820837,-0.201083 -0.2187224,-0.201084 -0.2187224,-0.550334 v -0.508 q 0,-0.349251 0.2187224,-0.550334 0.2187223,-0.201083 0.5820837,-0.201083 0.352778,0 0.5644448,0.183444 0.2116668,0.183445 0.2257779,0.500945 H 5.8831643 q -0.010583,-0.165806 -0.1234724,-0.257528 -0.1093611,-0.09172 -0.2892779,-0.09172 -0.1940279,0 -0.3069169,0.109361 -0.1128889,0.105833 -0.1128889,0.303389 v 0.511528 q 0,0.201083 0.1128889,0.310445 0.112889,0.105833 0.3069169,0.105833 0.1834445,0 0.2928057,-0.09172 0.1093612,-0.09172 0.1199446,-0.261056 h 0.3774724 q -0.014111,0.3175 -0.2257779,0.504473 -0.2116668,0.183444 -0.5644448,0.183444 z m 2.3883085,-0.03528 q -0.2751669,0 -0.4409725,-0.15875 Q 7.2554721,92.04783 7.2554721,91.779719 V 90.139301 H 6.6028328 v -0.345722 h 1.0336395 v 1.979085 q 0,0.116416 0.0635,0.183444 0.0635,0.06703 0.1728612,0.06703 h 0.5856115 v 0.345722 z m 1.0724465,0 v -2.575279 h 0.3810002 v 1.41464 h 0.3421947 l 0.5009451,-0.77964 h 0.426861 l -0.5961948,0.931334 0.6244168,1.008945 H 10.172948 L 9.6578917,91.536302 H 9.3121692 v 0.832556 z"
       id="text18"
       inkscape:label="clock"
       aria-label="clk" /></g><g
     id="g10"
     inkscape:label="title - league mono ultralight semiexpanded modified l+kern"><path
       style="display:inline;fill:#f0f6fc;fill-opacity:1;stroke:#f0f6fc;stroke-width:0.232001;stroke-linecap:butt;stroke-linejoin:round;stroke-miterlimit:4;stroke-dasharray:none;stroke-opacity:1;paint-order:stroke fill markers"
       d="m 72.398,56.567 h 3.742008"
       id="path1"
       sodipodi:nodetypes="cc"
       inkscape:label="border2" /><path
       style="fill:#f0f6fc;fill-opacity:1;stroke:#f0f6fc;stroke-width:0.232;stroke-linecap:butt;stroke-linejoin:round;stroke-miterlimit:4;stroke-dasharray:none;stroke-opacity:1;paint-order:stroke fill markers"
       d="M 5.14,56.567 H 71.433551"
       id="path73"
       sodipodi:nodetypes="cc"
       inkscape:label="border" /><text
       xml:space="preserve"
       style="font-style:normal;font-variant:normal;font-weight:200;font-stretch:semi-expanded;font-size:4.93889px;font-family:'League Mono';-inkscape-font-specification:'League Mono, Ultra-Light Semi-Expanded';font-variant-ligatures:normal;font-variant-caps:normal;font-variant-numeric:normal;font-variant-east-asian:normal;writing-mode:lr-tb;direction:ltr;display:none;fill:#f0f6fc;fill-opacity:1;stroke-width:0.499999;stroke-linecap:round;stroke-linejoin:round"
       x="28.610069"
       y="60.402107"
       id="text4-4"
       inkscape:label="title"><tspan
         sodipodi:role="line"
         style="font-style:normal;font-variant:normal;font-weight:200;font-stretch:semi-expanded;font-size:4.93889px;font-family:'League Mono';-inkscape-font-specification:'League Mono, Ultra-Light Semi-Expanded';font-variant-ligatures:normal;font-variant-caps:normal;font-variant-numeric:normal;font-variant-east-asian:normal;fill:#f0f6fc;fill-opacity:1;stroke-width:0.5"
         x="28.610069"
         y="60.402107"
         id="tspan1">entropy_puddle</tspan></text><path
       style="font-weight:200;font-stretch:semi-expanded;font-size:4.93889px;font-family:'League Mono';-inkscape-font-specification:'League Mono, Ultra-Light Semi-Expanded';fill:#f0f6fc;stroke-width:0.5;stroke-linecap:round;stroke-linejoin:round"
       d="m 31.900138,59.94526 c -0.04116,0.05597 -0.110304,0.124295 -0.207433,0.204964 -0.09549,0.08067 -0.219781,0.152283 -0.372886,0.214842 -0.153106,0.06091 -0.335022,0.09137 -0.545748,0.09137 -0.230481,0 -0.439561,-0.04774 -0.627239,-0.143228 -0.186031,-0.09713 -0.334198,-0.242005 -0.4445,-0.434622 -0.108655,-0.192617 -0.162983,-0.4338 -0.162983,-0.723548 0,-0.291395 0.05762,-0.531754 0.172861,-0.721078 0.116887,-0.189325 0.269993,-0.330083 0.459317,-0.422276 0.189324,-0.09219 0.393465,-0.138288 0.612422,-0.138288 0.240359,0 0.447793,0.05597 0.6223,0.167922 0.174508,0.110302 0.308681,0.265054 0.40252,0.464255 0.09549,0.197556 0.143228,0.426391 0.143228,0.686506 h -2.123723 c 0.0049,0.319382 0.08972,0.570442 0.254353,0.753181 0.166276,0.182739 0.396757,0.274108 0.691444,0.274108 0.172861,0 0.319382,-0.02469 0.439562,-0.07408 0.120179,-0.05103 0.216488,-0.109477 0.288925,-0.175331 0.07408,-0.0675 0.126765,-0.126765 0.158044,-0.1778 z M 30.78148,58.107993 c -0.243652,0 -0.454378,0.07079 -0.632178,0.212372 -0.1778,0.141581 -0.28234,0.363831 -0.31362,0.66675 h 1.817512 c 0,-0.136643 -0.03128,-0.272462 -0.09384,-0.407458 -0.06091,-0.134997 -0.155575,-0.246945 -0.283986,-0.335845 -0.128411,-0.09055 -0.293041,-0.135819 -0.493888,-0.135819 z m 2.474379,2.294114 v -2.469445 h 0.246945 l 0.02222,0.493889 c 0.09713,-0.159691 0.230481,-0.291394 0.40005,-0.395111 0.169568,-0.105363 0.3663,-0.158044 0.590197,-0.158044 0.595959,0 0.893939,0.358893 0.893939,1.076678 v 1.452033 h -0.286451 v -1.410053 c 0,-0.288102 -0.05433,-0.506236 -0.162983,-0.654403 -0.107009,-0.148167 -0.277401,-0.22225 -0.511175,-0.22225 -0.149813,0 -0.291394,0.04033 -0.424745,0.121003 -0.13335,0.07902 -0.244475,0.185208 -0.333375,0.318558 -0.0889,0.13335 -0.142405,0.279047 -0.160514,0.437092 v 1.410053 z m 4.578346,-0.22225 h 0.963084 v 0.22225 H 37.557628 V 58.16479 h -0.955676 v -0.232128 h 0.955676 V 57.142 l 0.276577,4.4e-4 v 0.790222 h 1.059392 v 0.232128 h -1.059392 z m 3.370789,-0.0099 h 0.772936 v 0.232128 h -1.832328 v -0.232128 h 0.780344 V 58.16479 h -0.75565 v -0.232128 h 1.002595 l 0.0321,0.525992 v 0.0074 c 0.108655,-0.167922 0.257645,-0.30868 0.446969,-0.422275 0.190971,-0.113594 0.408282,-0.170391 0.651934,-0.170391 0.105363,0 0.195909,0.0107 0.271639,0.0321 0.07573,0.01975 0.129234,0.03786 0.160513,0.05433 l -0.13335,0.242006 c -0.02469,-0.01647 -0.06914,-0.03293 -0.13335,-0.04939 -0.06421,-0.01647 -0.146521,-0.0247 -0.246944,-0.0247 -0.158045,0 -0.306211,0.0354 -0.4445,0.106187 -0.136643,0.07079 -0.255176,0.164629 -0.3556,0.281516 -0.09878,0.115241 -0.171215,0.238713 -0.217311,0.370417 z m 3.585629,0.286456 c -0.218957,0 -0.41569,-0.04445 -0.590198,-0.13335 -0.174507,-0.0889 -0.312796,-0.228012 -0.414866,-0.417336 -0.100424,-0.190971 -0.150636,-0.438738 -0.150636,-0.743303 0,-0.304565 0.05103,-0.551509 0.153105,-0.740834 0.102071,-0.189324 0.239536,-0.327613 0.412397,-0.414866 0.174508,-0.0889 0.371241,-0.13335 0.590198,-0.13335 0.217311,0 0.412397,0.04445 0.585258,0.13335 0.174507,0.08725 0.311973,0.225542 0.412398,0.414866 0.10207,0.189325 0.153105,0.436269 0.153105,0.740834 0,0.304565 -0.05103,0.552332 -0.153105,0.743303 -0.100425,0.189324 -0.237891,0.328436 -0.412398,0.417336 -0.172861,0.0889 -0.367947,0.13335 -0.585258,0.13335 z m 0,-0.239536 c 0.167922,0 0.316912,-0.03375 0.446969,-0.101247 0.130058,-0.06915 0.231305,-0.18027 0.303742,-0.333375 0.07408,-0.154752 0.111125,-0.361362 0.111125,-0.619831 0,-0.256823 -0.03704,-0.461787 -0.111125,-0.614892 -0.07408,-0.153105 -0.176154,-0.263407 -0.306211,-0.330906 -0.130057,-0.06914 -0.278224,-0.103716 -0.4445,-0.103716 -0.167923,0 -0.317736,0.03457 -0.449439,0.103716 -0.130057,0.0675 -0.232128,0.177801 -0.306211,0.330906 -0.07408,0.153105 -0.111125,0.358069 -0.111125,0.614892 0,0.258469 0.03704,0.465079 0.111125,0.619831 0.07408,0.154751 0.176154,0.265876 0.306211,0.333375 0.130057,0.0675 0.27987,0.101247 0.449439,0.101247 z m 2.449685,-2.284237 h 0.254353 l 0.02223,0.474134 c 0.08725,-0.149813 0.210726,-0.275755 0.370417,-0.377825 0.161337,-0.103717 0.357247,-0.155575 0.587728,-0.155575 0.325967,0 0.585258,0.111125 0.777875,0.333375 0.192617,0.220603 0.288925,0.542454 0.288925,0.965553 0,0.281517 -0.04774,0.51776 -0.143228,0.70873 -0.09549,0.190971 -0.228011,0.335022 -0.39758,0.432153 -0.169569,0.09549 -0.364655,0.143228 -0.585259,0.143228 -0.223896,0 -0.409104,-0.04363 -0.555625,-0.130881 -0.146521,-0.0889 -0.260115,-0.202494 -0.340783,-0.340783 v 1.405114 h -0.279048 z m 1.180395,0.18027 c -0.131502,0.07514 -0.281517,0.02716 -0.390172,0.08149 -0.107009,0.05433 -0.196733,0.122648 -0.26917,0.204964 -0.07079,0.08067 -0.125942,0.162984 -0.165453,0.246945 -0.03787,0.08396 -0.06338,0.155575 -0.07655,0.214842 v 0.642055 c 0.01153,0.05927 0.03375,0.129234 0.06668,0.209903 0.03457,0.08067 0.08478,0.159691 0.150636,0.237067 0.06585,0.07573 0.149814,0.139112 0.251883,0.190147 0.103717,0.05103 0.230482,0.07655 0.380295,0.07655 0.27987,0 0.497181,-0.09384 0.651933,-0.281517 0.154752,-0.189324 0.232128,-0.443677 0.232128,-0.763058 0,-0.319382 -0.06997,-0.575381 -0.209903,-0.767998 -0.138289,-0.194263 -0.382163,-0.428615 -0.6223,-0.291394 z m 2.543524,-0.18027 0.896408,2.276829 0.866775,-2.276829 h 0.301273 l -0.977901,2.469445 c -0.121826,0.324321 -0.262584,0.568796 -0.422275,0.733425 -0.158044,0.16463 -0.351484,0.246945 -0.580319,0.246945 -0.100424,0 -0.191794,-0.01729 -0.274109,-0.05186 -0.08232,-0.03293 -0.14652,-0.07326 -0.192616,-0.121003 l 0.125941,-0.204964 c 0.04116,0.04281 0.08973,0.07738 0.145698,0.103717 0.05762,0.02799 0.125941,0.04198 0.204964,0.04198 0.149813,0 0.280693,-0.06503 0.392641,-0.195086 0.113595,-0.128411 0.220604,-0.312797 0.321028,-0.553156 h -0.101247 l -1.010003,-2.469445 z m 2.86949,2.842331 h 2.916414 v 0.232128 H 53.833717 Z M 57.76013,57.93264 h 0.254352 l 0.02222,0.474134 c 0.08725,-0.149813 0.210726,-0.275755 0.370417,-0.377825 0.161337,-0.103717 0.357247,-0.155575 0.587728,-0.155575 0.325967,0 0.585258,0.111125 0.777875,0.333375 0.192617,0.220603 0.288925,0.542454 0.288925,0.965553 0,0.281517 -0.04774,0.51776 -0.143228,0.70873 -0.09548,0.190971 -0.228011,0.335022 -0.39758,0.432153 -0.169569,0.09549 -0.364655,0.143228 -0.585259,0.143228 -0.223896,0 -0.409104,-0.04363 -0.555625,-0.130881 -0.14652,-0.0889 -0.260114,-0.202494 -0.340783,-0.340783 v 1.405114 h -0.279047 z m 1.180394,0.18027 c -0.135468,0.06773 -0.281517,0.02716 -0.390172,0.08149 -0.107009,0.05433 -0.196733,0.122648 -0.26917,0.204964 -0.07079,0.08067 -0.125941,0.162984 -0.165452,0.246945 -0.03787,0.08396 -0.06338,0.155575 -0.07655,0.214842 v 0.642055 c 0.01153,0.05927 0.03375,0.129234 0.06668,0.209903 0.03457,0.08067 0.08479,0.159691 0.150636,0.237067 0.06585,0.07573 0.149814,0.139112 0.251883,0.190147 0.103717,0.05103 0.230482,0.07655 0.380295,0.07655 0.279871,0 0.497182,-0.09384 0.651933,-0.281517 0.154752,-0.189324 0.232128,-0.443677 0.232128,-0.763058 0,-0.319382 -0.06997,-0.575381 -0.209903,-0.767998 -0.138289,-0.194263 -0.374922,-0.415083 -0.6223,-0.291394 z m 3.232499,2.338564 c -0.167699,-0.04192 -0.330906,-0.02799 -0.474134,-0.08396 -0.143227,-0.05762 -0.258468,-0.155575 -0.345722,-0.293864 -0.08725,-0.138289 -0.13088,-0.331729 -0.13088,-0.58032 v -1.565628 h 0.279047 v 1.489076 c 0,0.265053 0.05433,0.464255 0.162983,0.597605 0.108656,0.131704 0.306212,0.197556 0.592667,0.197556 0.179447,0 0.330906,-0.04116 0.454378,-0.123472 0.125119,-0.08396 0.223896,-0.186855 0.296333,-0.308681 0.07408,-0.121826 0.122649,-0.242006 0.145698,-0.360539 v -1.491545 h 0.279047 v 2.474384 h -0.242006 l -0.02716,-0.469194 c -0.09713,0.159691 -0.229658,0.286455 -0.39758,0.380294 -0.167923,0.09219 -0.372262,0.19339 -0.592667,0.138289 z m 3.504139,0.0049 c -0.195909,0 -0.377825,-0.04527 -0.545747,-0.135819 -0.167922,-0.09219 -0.303741,-0.233774 -0.407458,-0.424745 -0.102071,-0.190971 -0.153106,-0.435446 -0.153106,-0.733425 0,-0.29798 0.04939,-0.541632 0.148167,-0.730956 0.100424,-0.189324 0.232951,-0.328436 0.39758,-0.417336 0.16463,-0.09055 0.344076,-0.13582 0.538339,-0.13582 0.222251,0 0.413221,0.04692 0.572912,0.140759 0.159691,0.09219 0.284809,0.211549 0.375355,0.358069 V 57.142 h 0.283986 v 3.260046 h -0.256822 l -0.02469,-0.446969 c -0.08725,0.14652 -0.208257,0.2667 -0.363009,0.360539 -0.154751,0.09384 -0.343252,0.140758 -0.565503,0.140758 z m -0.814916,-1.293989 c 0,0.245298 0.04033,0.446146 0.121002,0.602544 0.08067,0.154752 0.187678,0.26917 0.321028,0.343253 0.13335,0.07244 0.281517,0.108656 0.4445,0.108656 0.158045,0 0.296334,-0.03704 0.414867,-0.111125 0.118533,-0.07573 0.214842,-0.170392 0.288925,-0.283986 0.07408,-0.115241 0.124295,-0.234597 0.150636,-0.35807 v -0.617361 c -0.02799,-0.111948 -0.08067,-0.223896 -0.158044,-0.335845 -0.07573,-0.111948 -0.173685,-0.204964 -0.293864,-0.279047 -0.12018,-0.07573 -0.259292,-0.113594 -0.417336,-0.113594 -0.161337,0 -0.307858,0.0354 -0.439562,0.106186 -0.131703,0.06914 -0.237066,0.180269 -0.316088,0.333375 -0.07738,0.153105 -0.116064,0.354777 -0.116064,0.605014 z m 4.321524,1.293989 c -0.195909,0 -0.377825,-0.04527 -0.545748,-0.135819 -0.167922,-0.09219 -0.303741,-0.233774 -0.407458,-0.424745 -0.102071,-0.190971 -0.153106,-0.435446 -0.153106,-0.733425 0,-0.29798 0.04939,-0.541632 0.148167,-0.730956 0.100424,-0.189324 0.232951,-0.328436 0.39758,-0.417336 0.16463,-0.09055 0.344076,-0.13582 0.538339,-0.13582 0.222251,0 0.413221,0.04692 0.572912,0.140759 0.159691,0.09219 0.284809,0.211549 0.375355,0.358069 V 57.142 h 0.283987 v 3.260046 h -0.256823 l -0.02469,-0.446969 c -0.08725,0.14652 -0.208257,0.2667 -0.363009,0.360539 -0.154751,0.09384 -0.343252,0.140758 -0.565502,0.140758 z m -0.814917,-1.293989 c 0,0.245298 0.04033,0.446146 0.121002,0.602544 0.08067,0.154752 0.187678,0.26917 0.321028,0.343253 0.13335,0.07244 0.281517,0.108656 0.4445,0.108656 0.158045,0 0.296334,-0.03704 0.414867,-0.111125 0.118533,-0.07573 0.214842,-0.170392 0.288925,-0.283986 0.07408,-0.115241 0.124295,-0.234597 0.150636,-0.35807 v -0.617361 c -0.02799,-0.111948 -0.08067,-0.223896 -0.158044,-0.335845 -0.07573,-0.111948 -0.173685,-0.204964 -0.293864,-0.279047 -0.12018,-0.07573 -0.259292,-0.113594 -0.417336,-0.113594 -0.161337,0 -0.307858,0.0354 -0.439561,0.106186 -0.131704,0.06914 -0.237067,0.180269 -0.316089,0.333375 -0.07738,0.153105 -0.116064,0.354777 -0.116064,0.605014 z M 71.876,60.169918 h 1.044 l 9.8e-5,0.232128 h -1.323623 v -3.718984 h -0.903817 v -0.232128 h 1.182864 z m 4.211685,-0.224719 c -0.04116,0.05597 -0.110304,0.124295 -0.207433,0.204964 -0.09548,0.08067 -0.219781,0.152283 -0.372887,0.214842 -0.153105,0.06091 -0.335021,0.09137 -0.545747,0.09137 -0.230481,0 -0.439561,-0.04774 -0.627239,-0.143228 -0.186031,-0.09713 -0.334198,-0.242005 -0.4445,-0.434622 -0.108656,-0.192617 -0.162984,-0.433799 -0.162984,-0.723547 0,-0.291395 0.05762,-0.531754 0.172862,-0.721078 0.116887,-0.189325 0.269992,-0.330083 0.459316,-0.422276 0.189325,-0.09219 0.393466,-0.138288 0.612423,-0.138288 0.240359,0 0.447793,0.05597 0.6223,0.167922 0.174507,0.110302 0.30868,0.265054 0.402519,0.464255 0.09549,0.197556 0.143228,0.426391 0.143228,0.686506 h -2.123722 c 0.0049,0.319382 0.08972,0.570442 0.254352,0.753181 0.166276,0.182739 0.396758,0.274108 0.691445,0.274108 0.172861,0 0.319382,-0.02469 0.439561,-0.07408 0.12018,-0.05103 0.216488,-0.109477 0.288925,-0.175331 0.07408,-0.0675 0.126765,-0.126765 0.158045,-0.1778 z m -1.118659,-1.837267 c -0.243652,0 -0.454378,0.07079 -0.632178,0.212372 -0.1778,0.141581 -0.28234,0.363831 -0.313619,0.66675 h 1.817511 c 0,-0.136643 -0.03128,-0.272462 -0.09384,-0.407458 -0.06091,-0.134997 -0.155575,-0.246945 -0.283986,-0.335845 -0.128411,-0.09055 -0.29304,-0.135819 -0.493888,-0.135819 z"
       id="text2"
       inkscape:label="title"
       aria-label="entropy_puddle"
       sodipodi:nodetypes="cccsccscsscccccsccccssccccscccccssccscscscccccccccccccccccccccccccccccccscccssccccsscsscsccsccssccsscscsssssccccscsscscccccsccccccccscscssccccccsccccsccccccccccccccscsscscccccsccccccccscscssscssccscscccccccccsssccsccscccccccssssccsccccccsccssccsccscccccccssssccsccccccsccsccccccccccccsccscsscccccsccccssccccs" /></g><g
     id="g26"
     inkscape:label="branding - league mono ultrabold condensed modified baseline and b d and i+kern"
     transform="translate(-75.717881,0.71623)"><path
       style="font-weight:800;font-stretch:condensed;font-size:3.52778px;font-family:'League Mono';-inkscape-font-specification:'League Mono, Ultra-Bold Condensed';display:inline;fill:#f0f6fc;fill-opacity:0.63;stroke-width:0.5;stroke-linecap:round;stroke-linejoin:round"
       d="m 136.34488,127.61723 v -3.93374 l 0.86323,-6.6e-4 v 1.64469 c 0.0663,-0.076 0.14628,-0.13499 0.24007,-0.177 0.0937,-0.0436 0.20125,-0.0654 0.32249,-0.0654 0.59165,0 0.88749,0.4203 0.88749,1.26092 0,0.41707 -0.076,0.7331 -0.22794,0.9481 -0.15196,0.21499 -0.3807,0.32313 -0.68622,0.32313 z m 1.14209,-1.87749 c -0.0808,0 -0.1455,0.0379 -0.19399,0.11397 -0.0469,0.0744 -0.0752,0.16727 -0.0848,0.27884 v 0.40011 c 0.008,0.11149 0.0333,0.21095 0.0752,0.29824 0.0436,0.0873 0.11067,0.13087 0.20126,0.13087 0.10186,0 0.17136,-0.0566 0.20854,-0.16973 0.0388,-0.11314 0.0581,-0.26188 0.0581,-0.44616 0,-0.18267 -0.0186,-0.32897 -0.0558,-0.43891 -0.0373,-0.11148 -0.10668,-0.16731 -0.20853,-0.16731 z m 2.11876,-0.97983 c -0.14872,0 -0.27561,-0.0518 -0.3807,-0.15533 -0.10351,-0.10503 -0.15517,-0.23278 -0.15517,-0.38311 0,-0.15034 0.0517,-0.27724 0.15517,-0.3807 0.10503,-0.10503 0.23198,-0.15725 0.3807,-0.15725 0.15035,0 0.27725,0.0521 0.38071,0.15725 0.10503,0.10351 0.15761,0.23036 0.15761,0.3807 0,0.15033 -0.0525,0.27804 -0.15761,0.38311 -0.10352,0.10352 -0.23036,0.15533 -0.38071,0.15533 z m 0.42979,2.18013 v 0.67719 h -0.86626 l -2.3e-4,-1.85566 v -0.62318 h 0.8659 z m 2.11195,0.67719 -0.56499,-1.02395 h -0.12853 v 1.02395 h -0.86081 v -3.93374 h 0.86081 v 2.33753 h 0.13582 l 0.48495,-0.88263 h 0.91659 l -0.75413,1.15664 0.82687,1.3222 z m 3.40203,-0.56565 c -0.0373,0.0856 -0.10104,0.17217 -0.19156,0.25945 -0.0889,0.0873 -0.2061,0.16008 -0.3516,0.21823 -0.14548,0.0581 -0.32008,0.0873 -0.52377,0.0873 -0.2247,0 -0.42999,-0.0485 -0.6159,-0.14549 -0.18429,-0.0986 -0.33139,-0.24248 -0.44132,-0.43162 -0.10997,-0.18914 -0.16489,-0.4195 -0.16489,-0.69107 0,-0.2732 0.055,-0.50356 0.16489,-0.69108 0.10998,-0.18913 0.25622,-0.3322 0.43889,-0.42919 0.18267,-0.0986 0.38474,-0.14791 0.60622,-0.14791 0.22469,0 0.42515,0.0469 0.60135,0.14063 0.17619,0.0938 0.31522,0.24249 0.41707,0.44618 0.10186,0.20369 0.15276,0.47122 0.15276,0.8026 h -1.51552 c 0.008,0.17944 0.043,0.30796 0.10434,0.38555 0.0615,0.0777 0.14546,0.11644 0.25218,0.11644 0.0792,0 0.15112,-0.0258 0.21581,-0.0775 0.0648,-0.0533 0.10998,-0.12125 0.13582,-0.20369 z m -1.05965,-1.3482 c -0.0808,0 -0.14954,0.025 -0.2061,0.0752 -0.0565,0.0485 -0.0986,0.12606 -0.12606,0.23278 h 0.64015 c -0.001,-0.0373 -0.0137,-0.08 -0.0339,-0.12854 -0.0194,-0.0485 -0.0518,-0.0905 -0.0971,-0.12606 -0.0436,-0.0356 -0.10255,-0.0533 -0.177,-0.0533 z m 2.74248,1.91318 c -0.26027,0 -0.48982,-0.0388 -0.68866,-0.11644 -0.19721,-0.0792 -0.34513,-0.18831 -0.44374,-0.32736 l 0.6741,-0.42676 c 0.0356,0.0744 0.0946,0.13334 0.17701,0.177 0.084,0.0436 0.18185,0.0654 0.2934,0.0654 0.2134,0 0.32009,-0.0437 0.32009,-0.13101 0,-0.0485 -0.0404,-0.0898 -0.12125,-0.12372 -0.0792,-0.0356 -0.21335,-0.0744 -0.40251,-0.11644 -0.25219,-0.0646 -0.45749,-0.15837 -0.61591,-0.28128 -0.15681,-0.1229 -0.23521,-0.29583 -0.23521,-0.51891 0,-0.16327 0.0502,-0.29906 0.15033,-0.40738 0.10187,-0.10997 0.23603,-0.19236 0.40253,-0.24732 0.16811,-0.055 0.35078,-0.0825 0.54801,-0.0825 0.2829,0 0.51568,0.0437 0.69835,0.13101 0.18267,0.0856 0.30391,0.18914 0.36372,0.31036 l -0.645,0.40495 c -0.0194,-0.0581 -0.0687,-0.1108 -0.14791,-0.15761 -0.0792,-0.0485 -0.16729,-0.0727 -0.2643,-0.0727 -0.0954,0 -0.16974,0.0124 -0.22309,0.0388 -0.0533,0.0242 -0.08,0.0557 -0.08,0.0946 0,0.0436 0.0291,0.0775 0.0873,0.10186 0.0598,0.0243 0.16574,0.0518 0.31766,0.0825 0.0937,0.021 0.19641,0.0509 0.30794,0.0898 0.11149,0.0373 0.21743,0.0865 0.31766,0.14791 0.10186,0.0614 0.18429,0.13818 0.24733,0.23035 0.0647,0.0921 0.0971,0.20369 0.0971,0.33463 0,0.17782 -0.055,0.32655 -0.1649,0.44618 -0.10833,0.11795 -0.24894,0.2069 -0.42192,0.26672 -0.17297,0.0581 -0.35564,0.0873 -0.548,0.0873 z m 1.60281,6.7e-4 v -3.93374 h 0.85352 v 1.68041 c 0.0906,-0.0873 0.19158,-0.15523 0.30311,-0.20369 0.11314,-0.0502 0.22874,-0.0752 0.34676,-0.0752 0.23602,0 0.42596,0.0752 0.56982,0.22551 0.14549,0.15035 0.21824,0.39688 0.21824,0.73958 v 1.5671 h -0.86323 v -1.44583 c 0,-0.13733 -0.0235,-0.24329 -0.0704,-0.31765 -0.0452,-0.076 -0.10997,-0.11396 -0.19398,-0.11396 -0.0986,0 -0.17457,0.0485 -0.22793,0.14549 -0.0517,0.0969 -0.0792,0.20934 -0.0825,0.33705 v 1.39494 z m 5.00726,-0.56565 c -0.0373,0.0856 -0.10104,0.17217 -0.19157,0.25945 -0.0889,0.0873 -0.20609,0.16008 -0.35159,0.21823 -0.14549,0.0581 -0.32007,0.0873 -0.52376,0.0873 -0.22471,0 -0.43001,-0.0485 -0.61591,-0.14549 -0.18429,-0.0986 -0.3314,-0.24248 -0.44132,-0.43162 -0.10998,-0.18914 -0.1649,-0.4195 -0.1649,-0.69107 0,-0.2732 0.055,-0.50356 0.1649,-0.69108 0.10997,-0.18913 0.25621,-0.3322 0.43888,-0.42919 0.18267,-0.0986 0.38474,-0.14791 0.60622,-0.14791 0.2247,0 0.42515,0.0469 0.60135,0.14063 0.1762,0.0938 0.31522,0.24249 0.41707,0.44618 0.10187,0.20369 0.15276,0.47122 0.15276,0.8026 h -1.51551 c 0.008,0.17944 0.043,0.30796 0.10434,0.38555 0.0614,0.0777 0.14547,0.11644 0.25218,0.11644 0.0792,0 0.15113,-0.0258 0.21581,-0.0775 0.0647,-0.0533 0.10997,-0.12125 0.13582,-0.20369 z m -1.05965,-1.3482 c -0.0808,0 -0.14954,0.025 -0.20611,0.0752 -0.0565,0.0485 -0.0986,0.12606 -0.12606,0.23278 h 0.64016 c -0.001,-0.0373 -0.0137,-0.08 -0.034,-0.12854 -0.0194,-0.0485 -0.0518,-0.0905 -0.0971,-0.12606 -0.0436,-0.0356 -0.10256,-0.0533 -0.17701,-0.0533 z m 2.48301,1.91318 c -0.3039,0 -0.53184,-0.10751 -0.6838,-0.3225 -0.15195,-0.215 -0.22793,-0.53103 -0.22793,-0.9481 0,-0.84062 0.29582,-1.26092 0.88748,-1.26092 0.12455,0 0.23278,0.0227 0.32493,0.0679 0.0937,0.0436 0.17298,0.10503 0.23763,0.18429 v -1.65374 h 0.86081 v 3.93374 c -0.55036,0 -0.89275,-7.1e-4 -1.39917,-7.1e-4 z m -0.007,-1.2706 c 0,0.18428 0.0177,0.33301 0.0533,0.44616 0.0356,0.11314 0.1075,0.16973 0.21581,0.16973 0.0906,0 0.15683,-0.0436 0.19884,-0.13087 0.0436,-0.0873 0.0694,-0.18675 0.0775,-0.29824 v -0.40011 c -0.01,-0.11149 -0.0388,-0.20448 -0.0873,-0.27884 -0.0469,-0.076 -0.1108,-0.11397 -0.19155,-0.11397 -0.10668,0 -0.17783,0.0558 -0.2134,0.16732 -0.0356,0.10998 -0.0533,0.25623 -0.0533,0.4389 z"
       id="text4-4-2"
       inkscape:label="label 0.333 from right 0.333/2 from bottom"
       aria-label="bikeshed"
       sodipodi:nodetypes="cccccssssccccccscscccscssscssscccccccccccccccccccccccsscssccsssccssccccccccccccccccsscccsccsccccscscccccscccccccccscsccscsccccccsscssccsssccssccccccccccccsssccccccccssccccsccc" /><text
       xml:space="preserve"
       style="font-style:normal;font-variant:normal;font-weight:800;font-stretch:condensed;font-size:3.52778px;font-family:'League Mono';-inkscape-font-specification:'League Mono, Ultra-Bold Condensed';font-variant-ligatures:normal;font-variant-caps:normal;font-variant-numeric:normal;font-variant-east-asian:normal;writing-mode:lr-tb;direction:ltr;display:none;fill:#f0f6fc;fill-opacity:0.41999999;stroke-width:0.499999;stroke-linecap:round;stroke-linejoin:round"
       x="141.10172"
       y="127.74447"
       id="text27"
       inkscape:label="label"><tspan
         sodipodi:role="line"
         id="tspan27"
         style="font-style:normal;font-variant:normal;font-weight:800;font-stretch:condensed;font-size:3.52778px;font-family:'League Mono';-inkscape-font-specification:'League Mono, Ultra-Bold Condensed';font-variant-ligatures:normal;font-variant-caps:normal;font-variant-numeric:normal;font-variant-east-asian:normal;fill:#f0f6fc;fill-opacity:0.41999999;stroke-width:0.5"
         x="141.10172"
         y="127.74447">bikeshed</tspan></text></g><g
     inkscape:groupmode="layer"
     id="layer1"
     inkscape:label="components"
     style="display:none"><circle
       style="display:inline;fill:#0000ff;fill-opacity:1;stroke:none;stroke-width:0.564999;stroke-linecap:round;stroke-linejoin:round;stroke-dasharray:none;stroke-opacity:1"
       id="circle43"
       cx="51.639999"
       cy="113.115"
       r="4"
       inkscape:label="cv" /><circle
       style="display:inline;fill:#ff0000;fill-opacity:1;stroke:none;stroke-width:0.423749;stroke-linecap:round;stroke-linejoin:round;stroke-dasharray:none;stroke-opacity:1"
       id="circle66-1"
       cx="62.640205"
       cy="113.11522"
       r="3"
       inkscape:label="scale" /><circle
       style="display:inline;fill:#0000ff;fill-opacity:1;stroke:none;stroke-width:0.564999;stroke-linecap:round;stroke-linejoin:round;stroke-dasharray:none;stroke-opacity:1"
       id="circle46"
       cx="40.639999"
       cy="113.115"
       r="4"
       inkscape:label="gate" /><circle
       style="display:inline;fill:#0000ff;fill-opacity:1;stroke:none;stroke-width:0.564999;stroke-linecap:round;stroke-linejoin:round;stroke-dasharray:none;stroke-opacity:1"
       id="circle44"
       cx="29.639999"
       cy="113.115"
       r="4"
       inkscape:label="trigger" /><circle
       style="display:inline;fill:#0000ff;fill-opacity:1;stroke:none;stroke-width:0.564999;stroke-linecap:round;stroke-linejoin:round;stroke-dasharray:none;stroke-opacity:1"
       id="circle3"
       cx="18.639999"
       cy="113.115"
       r="4"
       inkscape:label="end_of_sequence" /><circle
       style="display:inline;fill:#00ff00;fill-opacity:1;stroke:none;stroke-width:0.564999;stroke-linecap:round;stroke-linejoin:round;stroke-dasharray:none;stroke-opacity:1"
       id="circle35"
       cx="73.639999"
       cy="101.114"
       r="4"
       inkscape:label="randomize" /><circle
       style="display:inline;fill:#ff0000;fill-opacity:1;stroke:none;stroke-width:0.423749;stroke-linecap:round;stroke-linejoin:round;stroke-dasharray:none;stroke-opacity:1"
       id="circle23"
       cx="73.639999"
       cy="82.5"
       r="3"
       inkscape:label="randomize" /><circle
       style="display:inline;fill:#00ff00;fill-opacity:1;stroke:none;stroke-width:0.564999;stroke-linecap:round;stroke-linejoin:round;stroke-dasharray:none;stroke-opacity:1"
       id="circle36"
       cx="62.639999"
       cy="101.114"
       r="4"
       inkscape:label="reset" /><circle
       style="display:inline;fill:#ff0000;fill-opacity:1;stroke:none;stroke-width:0.423749;stroke-linecap:round;stroke-linejoin:round;stroke-dasharray:none;stroke-opacity:1"
       id="circle24"
       cx="62.639999"
       cy="82.5"
       r="3"
       inkscape:label="reset" /><circle
       style="display:inline;fill:#00ff00;fill-opacity:1;stroke:none;stroke-width:0.564999;stroke-linecap:round;stroke-linejoin:round;stroke-dasharray:none;stroke-opacity:1"
       id="circle65"
       cx="51.640102"
       cy="101.1144"
       r="4"
       inkscape:label="offset" /><circle
       style="display:inline;fill:#ff0000;fill-opacity:1;stroke:none;stroke-width:0.423749;stroke-linecap:round;stroke-linejoin:round;stroke-dasharray:none;stroke-opacity:1"
       id="circle66"
       cx="51.640102"
       cy="82.500397"
       r="3"
       inkscape:label="offset_cv" /><circle
       style="display:inline;fill:#ff0000;fill-opacity:1;stroke:none;stroke-width:0.423748;stroke-linecap:round;stroke-linejoin:round;stroke-dasharray:none;stroke-opacity:1"
       id="circle66-4-3-8"
       cx="56.640106"
       cy="70.00013"
       r="5"
       inkscape:label="offset" /><circle
       style="display:inline;fill:#00ff00;fill-opacity:1;stroke:none;stroke-width:0.564999;stroke-linecap:round;stroke-linejoin:round;stroke-dasharray:none;stroke-opacity:1"
       id="circle38"
       cx="40.640095"
       cy="101.1144"
       r="4"
       inkscape:label="filter" /><circle
       style="display:inline;fill:#ff0000;fill-opacity:1;stroke:none;stroke-width:0.423749;stroke-linecap:round;stroke-linejoin:round;stroke-dasharray:none;stroke-opacity:1"
       id="circle29"
       cx="40.640095"
       cy="82.500397"
       r="3"
       inkscape:label="filter_cv" /><circle
       style="display:inline;fill:#ff0000;fill-opacity:1;stroke:none;stroke-width:0.423748;stroke-linecap:round;stroke-linejoin:round;stroke-dasharray:none;stroke-opacity:1"
       id="circle66-4-3"
       cx="40.640114"
       cy="70.000214"
       r="5"
       inkscape:label="filter" /><circle
       style="display:inline;fill:#00ff00;fill-opacity:1;stroke:none;stroke-width:0.564999;stroke-linecap:round;stroke-linejoin:round;stroke-dasharray:none;stroke-opacity:1"
       id="circle37"
       cx="29.640091"
       cy="101.1144"
       r="4"
       inkscape:label="start" /><circle
       style="display:inline;fill:#ff0000;fill-opacity:1;stroke:none;stroke-width:0.423749;stroke-linecap:round;stroke-linejoin:round;stroke-dasharray:none;stroke-opacity:1"
       id="circle28"
       cx="29.640091"
       cy="82.500397"
       r="3"
       inkscape:label="start_cv" /><circle
       style="display:inline;fill:#ff0000;fill-opacity:1;stroke:none;stroke-width:0.423748;stroke-linecap:round;stroke-linejoin:round;stroke-dasharray:none;stroke-opacity:1"
       id="circle66-4"
       cx="24.6399"
       cy="70.000214"
       r="5"
       inkscape:label="start" /><circle
       style="display:inline;fill:#00ff00;fill-opacity:1;stroke:none;stroke-width:0.564999;stroke-linecap:round;stroke-linejoin:round;stroke-dasharray:none;stroke-opacity:1"
       id="circle34"
       cx="18.639999"
       cy="101.114"
       r="4"
       inkscape:label="run" /><circle
       style="display:inline;fill:#ff0000;fill-opacity:1;stroke:none;stroke-width:0.423749;stroke-linecap:round;stroke-linejoin:round;stroke-dasharray:none;stroke-opacity:1"
       id="path23"
       cx="18.639999"
       cy="82.5"
       inkscape:label="run"
       r="3" /><circle
       style="fill:#00ff00;fill-opacity:1;stroke:none;stroke-width:0.564999;stroke-linecap:round;stroke-linejoin:round;stroke-dasharray:none;stroke-opacity:1"
       id="circle47"
       cx="7.6399999"
       cy="101.114"
       r="4"
       inkscape:label="clock" /><circle
       style="fill:#ff00ff;fill-opacity:1;stroke:none;stroke-width:0.211875;stroke-linecap:round;stroke-linejoin:round;stroke-dasharray:none;stroke-opacity:1"
       id="circle49"
       cx="7.6399999"
       cy="82.5"
       inkscape:label="clock"
       r="1.5" /><rect
       style="display:inline;fill:#ffff00;fill-opacity:1;stroke:none;stroke-width:0.563312;stroke-linecap:round;stroke-linejoin:round;stroke-dasharray:none;stroke-opacity:1"
       id="rect775"
       width="73"
       height="49"
       x="4.1399999"
       y="6.2399998"
       rx="4.7855897"
       ry="0.089229695"
       inkscape:label="contributions" /></g></svg>
