<?xml version="1.0" encoding="UTF-8" standalone="no"?>
<svg
   width="203.2mm"
   height="128.5mm"
   viewBox="0 0 203.2 128.5"
   version="1.1"
   id="svg43"
   sodipodi:docname="EntropyPool.svg"
   inkscape:version="1.4.3 (0d15f75, 2025-12-25)"
   xml:space="preserve"
   xmlns:inkscape="http://www.inkscape.org/namespaces/inkscape"
   xmlns:sodipodi="http://sodipodi.sourceforge.net/DTD/sodipodi-0.dtd"
   xmlns="http://www.w3.org/2000/svg"
   xmlns:svg="http://www.w3.org/2000/svg"><defs
     id="defs1"><rect
       x="298"
       y="27.5"
       width="265.5"
       height="58.5"
       id="rect4" /><pattern
       id="EMFhbasepattern"
       patternUnits="userSpaceOnUse"
       width="6"
       height="6"
       x="0"
       y="0" /><style
       id="style1-2">.cls-1{fill:none;stroke:#020202;stroke-miterlimit:10;stroke-width:1.86px;}</style></defs><sodipodi:namedview
     id="namedview43"
     pagecolor="#ffffff"
     bordercolor="#000000"
     borderopacity="0.25"
     inkscape:showpageshadow="2"
     inkscape:pageopacity="0.0"
     inkscape:pagecheckerboard="0"
     inkscape:deskcolor="#d1d1d1"
     inkscape:document-units="mm"
     inkscape:lockguides="true"
     inkscape:zoom="1.4142136"
     inkscape:cx="397.394"
     inkscape:cy="498.51027"
     inkscape:window-width="3840"
     inkscape:window-height="2054"
     inkscape:window-x="-11"
     inkscape:window-y="3"
     inkscape:window-maximized="1"
     inkscape:current-layer="layer1"
     showguides="false" /><path
     id="background"
     style="fill:#0d1117;stroke-width:1;stroke-dasharray:none"
     d="M 0,128.5 1.5813229e-6,0 203.2,6.3238192e-7 V 128.5 Z"
     inkscape:label="start" /><g
     style="display:inline;fill:#f0f6fc;fill-opacity:1;stroke-width:1.16666669;stroke-dasharray:none"
     id="g50"
     transform="matrix(0.42857142,0,0,0.42857142,41.571427,98.571428)"
     inkscape:label="random"><g
       id="SVGRepo_bgCarrier-76"
       stroke-width="0"
       style="fill:#f0f6fc;fill-opacity:1;stroke-width:1.16666669;stroke-dasharray:none" /><g
       id="SVGRepo_tracerCarrier-18"
       stroke-linecap="round"
       stroke-linejoin="round"
       style="fill:#f0f6fc;fill-opacity:1;stroke-width:1.16666669;stroke-dasharray:none" /><g
       id="SVGRepo_iconCarrier-9"
       style="fill:#f0f6fc;fill-opacity:1;stroke-width:1.16666669;stroke-dasharray:none"><g
         fill="#000000"
         id="g2-2"
         style="fill:#f0f6fc;fill-opacity:1;stroke-width:1.16666669;stroke-dasharray:none"><path
           d="m 5,4 a 1,1 0 0 0 0,2 h 0.01 a 1,1 0 0 0 0,-2 z M 7,8 A 1,1 0 0 1 8,7 h 0.01 a 1,1 0 0 1 0,2 H 8 A 1,1 0 0 1 7,8 Z m 4.01,2 a 1,1 0 1 0 0,2 h 0.01 a 1,1 0 1 0 0,-2 z"
           id="path1-7"
           style="fill:#f0f6fc;fill-opacity:1;stroke-width:1.16666669;stroke-dasharray:none" /><path
           fill-rule="evenodd"
           d="M 3.25,1 A 2.25,2.25 0 0 0 1,3.25 v 9.5 A 2.25,2.25 0 0 0 3.25,15 h 9.5 A 2.25,2.25 0 0 0 15,12.75 V 3.25 A 2.25,2.25 0 0 0 12.75,1 Z M 2.5,3.25 A 0.75,0.75 0 0 1 3.25,2.5 h 9.5 a 0.75,0.75 0 0 1 0.75,0.75 v 9.5 A 0.75,0.75 0 0 1 12.75,13.5 H 3.25 A 0.75,0.75 0 0 1 2.5,12.75 Z"
           clip-rule="evenodd"
           id="path2-9"
           style="fill:#f0f6fc;fill-opacity:1;stroke-width:1.16666669;stroke-dasharray:none" /></g></g></g><rect
     style="fill:#0d1117;fill-opacity:1;stroke:#3d444d;stroke-width:0.48988;stroke-dasharray:none;stroke-opacity:1"
     id="contributionContainer"
     width="186.51012"
     height="54.51012"
     x="8.2449398"
     y="29.244938"
     rx="2.9040897"
     ry="3.000432"
     inkscape:label="contributions_container" /><rect
     style="fill:#3d444d;fill-opacity:1;stroke:#f0f6fc;stroke-width:0.621797;stroke-dasharray:none;stroke-opacity:1"
     id="contributionContainer-7"
     width="35.378204"
     height="24.378202"
     x="159.3107"
     y="95.310905"
     rx="3"
     ry="3.0000002"
     inkscape:label="output_container" /><path
     d="m 14.4375,102.00017 a 2.4375038,2.436614 0 1 1 -4.8750074,0 2.4375038,2.436614 0 1 1 4.8750074,0 z m -5.4374998,0 a 3.0000001,2.998905 0 1 0 5.9999998,0 3.0000001,2.998905 0 1 0 -5.9999998,0 z M 11.71875,100.407 v 1.59317 c 0,0.0937 0.04687,0.18159 0.125385,0.2343 l 1.125,0.74974 c 0.128903,0.0867 0.30351,0.0516 0.39024,-0.0785 0.08671,-0.13003 0.0516,-0.30341 -0.07852,-0.39009 l -0.999608,-0.66538 V 100.407 c 0,-0.1558 -0.125385,-0.28115 -0.28125,-0.28115 -0.155857,0 -0.281242,0.12535 -0.281242,0.28115 z"
     id="clock"
     style="fill:#f0f6fc;fill-opacity:1;stroke:none;stroke-width:0.012;stroke-opacity:1;stroke-dasharray:none" /><g
     id="ruler"
     transform="matrix(0.48555526,-0.48555526,0.48555526,0.48555526,-2.8943542,87.005157)"
     style="stroke-width:0.737445;stroke-dasharray:none"
     inkscape:label="length"><path
       id="rect2"
       style="fill:none;stroke:#f0f6fc;stroke-width:0.737445;stroke-linecap:round;stroke-dasharray:none;paint-order:stroke fill markers"
       d="m 53.030711,85.546059 h 7.004001 c 0.3878,0 0.7,0.3122 0.7,0.7 v 2.337 c 0,0.3878 -0.3122,0.7 -0.7,0.7 h -7.004001 c -0.3878,0 -0.7,-0.3122 -0.7,-0.7 v -2.337 c 0,-0.3878 0.3122,-0.7 0.7,-0.7 z" /><path
       id="path10"
       style="fill:#f0f6fc;stroke-width:0.737445;stroke-linecap:round;stroke-dasharray:none;paint-order:stroke fill markers"
       d="m 54.464751,86.885391 a 0.42500168,0.42500168 0 0 1 -0.425002,0.425002 0.42500168,0.42500168 0 0 1 -0.425002,-0.425002 0.42500168,0.42500168 0 0 1 0.425002,-0.425001 0.42500168,0.42500168 0 0 1 0.425002,0.425001 z" /><path
       id="circle11"
       style="fill:#f0f6fc;stroke-width:0.737445;stroke-linecap:round;stroke-dasharray:none;paint-order:stroke fill markers"
       d="m 56.138491,87.414558 a 0.42500168,0.42500168 0 0 1 -0.425001,0.425002 0.42500168,0.42500168 0 0 1 -0.425002,-0.425002 0.42500168,0.42500168 0 0 1 0.425002,-0.425001 0.42500168,0.42500168 0 0 1 0.425001,0.425001 z" /><path
       id="circle12"
       style="fill:#f0f6fc;stroke-width:0.737445;stroke-linecap:round;stroke-dasharray:none;paint-order:stroke fill markers"
       d="m 59.485972,87.414558 a 0.42500168,0.42500168 0 0 1 -0.425002,0.425002 0.42500168,0.42500168 0 0 1 -0.425001,-0.425002 0.42500168,0.42500168 0 0 1 0.425001,-0.425001 0.42500168,0.42500168 0 0 1 0.425002,0.425001 z" /><path
       id="circle13"
       style="fill:#f0f6fc;stroke-width:0.737445;stroke-linecap:round;stroke-dasharray:none;paint-order:stroke fill markers"
       d="m 57.812232,86.885391 a 0.42500168,0.42500168 0 0 1 -0.425002,0.425002 0.42500168,0.42500168 0 0 1 -0.425002,-0.425002 0.42500168,0.42500168 0 0 1 0.425002,-0.425001 0.42500168,0.42500168 0 0 1 0.425002,0.425001 z" /><path
       id="rect13"
       style="fill:#f0f6fc;stroke-width:0.737445;stroke-linecap:round;stroke-dasharray:none;paint-order:stroke fill markers"
       d="m 53.614746,85.416191 h 0.850005 v 1.469199 h -0.850005 z" /><path
       id="rect14"
       style="fill:#f0f6fc;stroke-width:0.737445;stroke-linecap:round;stroke-dasharray:none;paint-order:stroke fill markers"
       d="m 55.288486,85.546059 h 0.850005 v 1.868498 h -0.850005 z" /><path
       id="rect15"
       style="fill:#f0f6fc;stroke-width:0.44562317;stroke-linecap:round;stroke-dasharray:none;paint-order:stroke fill markers"
       d="m 58.635967,85.546059 h 0.850005 v 1.868498 h -0.850005 z" /><path
       id="rect16"
       style="fill:#f0f6fc;stroke-width:0.737445;stroke-linecap:round;stroke-dasharray:none;paint-order:stroke fill markers"
       d="m 56.962227,85.424324 h 0.850005 v 1.461069 h -0.850005 z" /></g><path
     style="fill:none;fill-opacity:1;stroke:#f0f6fc;stroke-width:0.512;stroke-linecap:round;stroke-linejoin:round;stroke-dasharray:none;stroke-opacity:1;paint-order:normal"
     d="m 86.25597,99.255864 h 5.48829 l -1.97655,2.302776 v 3.18553 l -1.53519,-1.57358 v -1.61195 z"
     id="filter"
     sodipodi:nodetypes="ccccccc" /><g
     style="color:#000000;fill:none;stroke:#f0f6fc;stroke-width:1.84928;stroke-linecap:square;stroke-linejoin:miter;stroke-dasharray:none;stroke-opacity:1"
     id="g3"
     transform="matrix(0.26987791,0,0,0.27935725,30.813147,98.594216)"
     inkscape:label="reset"><g
       id="SVGRepo_bgCarrier-8"
       stroke-width="0"
       style="stroke:#f0f6fc;stroke-width:1.84928;stroke-dasharray:none;stroke-opacity:1" /><g
       id="SVGRepo_tracerCarrier-24"
       stroke-linecap="round"
       stroke-linejoin="round"
       style="stroke:#f0f6fc;stroke-width:1.84928;stroke-dasharray:none;stroke-opacity:1" /><g
       id="SVGRepo_iconCarrier-5"
       style="stroke:#f0f6fc;stroke-width:1.84928;stroke-dasharray:none;stroke-opacity:1"><title
         id="backLeftIconTitle">Turn back</title><path
         d="M 5,17 V 15 C 5,10.029437 8.8055796,6 13.5,6 18.19442,6 22,10.029437 22,15"
         id="path1-5"
         style="stroke:#f0f6fc;stroke-width:1.85012073;stroke-dasharray:none;stroke-opacity:1;stroke-linecap:round" /><polyline
         points="8 15 5 18 2 15"
         id="polyline1"
         style="stroke:#f0f6fc;stroke-width:1.84928;stroke-dasharray:none;stroke-opacity:1" /></g></g><g
     style="fill:none;fill-opacity:1;stroke:#f0f6fc;stroke-width:1.66699;stroke-dasharray:none;stroke-opacity:1"
     id="g4"
     transform="matrix(0.3050381,0,0,0.3050381,96.339633,98.339453)"
     inkscape:label="scale"><g
       id="SVGRepo_bgCarrier-7"
       stroke-width="0"
       style="fill:none;fill-opacity:1;stroke:#f0f6fc;stroke-width:1.66699;stroke-dasharray:none;stroke-opacity:1" /><g
       id="SVGRepo_tracerCarrier-1"
       stroke-linecap="round"
       stroke-linejoin="round"
       style="fill:none;fill-opacity:1;stroke:#f0f6fc;stroke-width:1.66699;stroke-dasharray:none;stroke-opacity:1" /><g
       id="SVGRepo_iconCarrier-1"
       style="fill:none;fill-opacity:1;stroke:#f0f6fc;stroke-width:1.66699;stroke-dasharray:none;stroke-opacity:1"><path
         d="m 16,21 h 0.2 c 1.6802,0 2.5202,0 3.162,-0.327 0.5645,-0.2876 1.0234,-0.7465 1.311,-1.311 C 21,18.7202 21,17.8802 21,16.2 V 7.8 C 21,6.11984 21,5.27976 20.673,4.63803 20.3854,4.07354 19.9265,3.6146 19.362,3.32698 18.7202,3 17.8802,3 16.2,3 H 7.8 C 6.11984,3 5.27976,3 4.63803,3.32698 4.07354,3.6146 3.6146,4.07354 3.32698,4.63803 3,5.27976 3,6.11984 3,7.8 V 8 M 11.5,12.5 17,7 m 0,0 h -5 m 5,0 v 5 M 6.2,21 h 2.6 c 1.1201,0 1.6802,0 2.108,-0.218 0.3763,-0.1917 0.6823,-0.4977 0.874,-0.874 C 12,19.4802 12,18.9201 12,17.8 V 15.2 C 12,14.0799 12,13.5198 11.782,13.092 11.5903,12.7157 11.2843,12.4097 10.908,12.218 10.4802,12 9.92011,12 8.8,12 H 6.2 C 5.0799,12 4.51984,12 4.09202,12.218 3.71569,12.4097 3.40973,12.7157 3.21799,13.092 3,13.5198 3,14.0799 3,15.2 v 2.6 c 0,1.1201 0,1.6802 0.21799,2.108 0.19174,0.3763 0.4977,0.6823 0.87403,0.874 C 4.51984,21 5.07989,21 6.2,21 Z"
         stroke="#000000"
         stroke-width="2"
         stroke-linecap="round"
         stroke-linejoin="round"
         id="path1-52"
         style="fill:none;fill-opacity:1;stroke:#f0f6fc;stroke-width:1.66699;stroke-dasharray:none;stroke-opacity:1" /></g></g><g
     style="fill:none;fill-opacity:1;stroke:#f0f6fc;stroke-width:1.97083;stroke-dasharray:none;stroke-opacity:1"
     id="g73"
     transform="matrix(0.27944887,0,0,0.27944891,19.926062,98.576751)"
     inkscape:label="run"><g
       id="SVGRepo_bgCarrier-9"
       stroke-width="0"
       style="fill:none;fill-opacity:1;stroke:#f0f6fc;stroke-width:1.97083;stroke-dasharray:none;stroke-opacity:1" /><g
       id="SVGRepo_tracerCarrier-00"
       stroke-linecap="round"
       stroke-linejoin="round"
       style="fill:none;fill-opacity:1;stroke:#f0f6fc;stroke-width:1.97083;stroke-dasharray:none;stroke-opacity:1" /><g
       id="SVGRepo_iconCarrier-6"
       style="fill:none;fill-opacity:1;stroke:#f0f6fc;stroke-width:1.97083;stroke-dasharray:none;stroke-opacity:1"><path
         d="m 14,22 v -5.0388 c 0,-0.6075 -0.2762,-1.1821 -0.7506,-1.5617 L 11.5,14 m 0,0 L 13,7.5 M 11.5,14 10,13 M 13,7.5 11,7 m 2,0.5 2.0426,3.2681 c 0.2919,0.4671 0.7636,0.7931 1.3037,0.9012 L 18,12 m -8,1 1,-6 m -1,6 -0.59989,3.2994 C 9.18673,17.473 8.00015,18.2 6.85767,17.8573 L 4,17 M 11,7 8.10557,8.44721 C 7.428,8.786 7,9.47852 7,10.2361 V 12 m 7.5,-8.5 c 0,0.55228 -0.4477,1 -1,1 -0.5523,0 -1,-0.44772 -1,-1 0,-0.55228 0.4477,-1 1,-1 0.5523,0 1,0.44772 1,1 z"
         stroke="#000000"
         stroke-width="2"
         stroke-linecap="round"
         stroke-linejoin="round"
         id="path1-1"
         style="fill:none;fill-opacity:1;stroke:#f0f6fc;stroke-width:1.97083;stroke-dasharray:none;stroke-opacity:1" /></g></g><g
     style="fill:none;stroke:#f0f6fc;stroke-width:2.53221;stroke-dasharray:none;stroke-opacity:1"
     id="g74"
     transform="matrix(0.19676656,0,0,0.19676656,74.810155,98.855594)"
     inkscape:label="ping_pong"><g
       id="SVGRepo_bgCarrier-89"
       stroke-width="0"
       style="fill:none;stroke:#f0f6fc;stroke-width:2.53221;stroke-dasharray:none;stroke-opacity:1" /><g
       id="SVGRepo_tracerCarrier-3"
       stroke-linecap="round"
       stroke-linejoin="round"
       style="fill:none;stroke:#f0f6fc;stroke-width:2.53221;stroke-dasharray:none;stroke-opacity:1" /><g
       id="SVGRepo_iconCarrier-44"
       style="fill:none;stroke:#f0f6fc;stroke-width:2.53221;stroke-dasharray:none;stroke-opacity:1"> <style
   type="text/css"
   id="style1"> .st0{fill:none;stroke:#000000;stroke-width:2;stroke-linecap:round;stroke-linejoin:round;stroke-miterlimit:10;} </style> <path
   class="st0"
   d="M 19.5,7 C 15.4,2.9 8.6,3.1 4.8,7.5 c -3.6,4.2 -3,10.5 1,14.3 3.7,3.5 6.5,4 9,3 2.2,-0.9 4.6,-0.4 6.2,1.3 l 3.1,3.5 c 0.3,0.4 1,0.4 1.3,0 l 2.5,-2.5 c 0.4,-0.4 0.4,-1 0,-1.3 l -3.4,-3 C 22.7,21.2 22.3,18.8 23.1,16.6 24,13.9 23.5,11 19.5,7 Z"
   id="path1"
   style="fill:none;stroke:#f0f6fc;stroke-width:2.53221;stroke-dasharray:none;stroke-opacity:1" /> <line
   class="st0"
   x1="9.8000002"
   y1="24.5"
   x2="22.700001"
   y2="11.5"
   id="line1"
   style="fill:none;stroke:#f0f6fc;stroke-width:2.53221;stroke-dasharray:none;stroke-opacity:1" /> <circle
   class="st0"
   cx="27"
   cy="5"
   r="3"
   id="circle1"
   style="fill:none;stroke:#f0f6fc;stroke-width:2.53221;stroke-dasharray:none;stroke-opacity:1" /> </g></g><g
     id="g8"
     inkscape:label="trigger"
     transform="translate(11.026039)"><path
       style="fill:none;fill-opacity:1;stroke:#f0f6fc;stroke-width:0.499999;stroke-linecap:round;stroke-linejoin:round;stroke-dasharray:none;stroke-opacity:1"
       d="m 162.72396,104.07253 h 6"
       id="path7"
       sodipodi:nodetypes="cc" /><path
       style="fill:none;fill-opacity:1;stroke:#f0f6fc;stroke-width:0.499999;stroke-linecap:round;stroke-linejoin:round;stroke-dasharray:none;stroke-opacity:1"
       d="m 165.72396,104.07254 c -0.008,-5.000008 -0.008,-5.000008 -0.008,-5.000008"
       id="path8" /></g><path
     style="fill:none;fill-opacity:1;stroke:#f0f6fc;stroke-width:0.218855;stroke-linecap:round;stroke-linejoin:round;stroke-dasharray:none;stroke-opacity:1"
     id="path83"
     transform="rotate(45)"
     sodipodi:type="arc"
     sodipodi:cx="103.9447"
     sodipodi:cy="24.748734"
     sodipodi:rx="3.8900001"
     sodipodi:ry="3.8907528"
     sodipodi:start="1.5707963"
     sodipodi:end="0"
     sodipodi:arc-type="arc"
     d="m 103.9447,28.639486 a 3.8900001,3.8907528 0 0 1 -3.59389,-2.401826 3.8900001,3.8907528 0 0 1 0.84325,-4.240104 3.8900001,3.8907528 0 0 1 4.23928,-0.843409 3.8900001,3.8907528 0 0 1 2.40136,3.594587"
     sodipodi:open="true"
     inkscape:label="start_pot_arc" /><path
     style="fill:none;fill-opacity:1;stroke:#f0f6fc;stroke-width:0.218855;stroke-linecap:round;stroke-linejoin:round;stroke-dasharray:none;stroke-opacity:1"
     id="path84"
     transform="rotate(45)"
     sodipodi:type="arc"
     sodipodi:cx="111.72288"
     sodipodi:cy="16.970558"
     sodipodi:rx="3.8900001"
     sodipodi:ry="3.8907528"
     sodipodi:start="1.5707963"
     sodipodi:end="0"
     sodipodi:arc-type="arc"
     d="m 111.72288,20.861311 a 3.8900001,3.8907528 0 0 1 -3.59389,-2.401826 3.8900001,3.8907528 0 0 1 0.84324,-4.240104 3.8900001,3.8907528 0 0 1 4.23929,-0.84341 3.8900001,3.8907528 0 0 1 2.40136,3.594587"
     sodipodi:open="true"
     inkscape:label="length_pot_arc" /><path
     style="fill:none;fill-opacity:1;stroke:#f0f6fc;stroke-width:0.218855;stroke-linecap:round;stroke-linejoin:round;stroke-dasharray:none;stroke-opacity:1"
     id="path87"
     transform="rotate(45)"
     sodipodi:type="arc"
     sodipodi:cx="127.27908"
     sodipodi:cy="1.4143374"
     sodipodi:rx="3.8900001"
     sodipodi:ry="3.8907528"
     sodipodi:start="1.5707963"
     sodipodi:end="0"
     sodipodi:arc-type="arc"
     d="m 127.27908,5.3050902 a 3.8900001,3.8907528 0 0 1 -3.59389,-2.4018261 3.8900001,3.8907528 0 0 1 0.84325,-4.2401043 3.8900001,3.8907528 0 0 1 4.23928,-0.8434093 3.8900001,3.8907528 0 0 1 2.40136,3.5945869"
     sodipodi:open="true"
     inkscape:label="filter_pot_arc" /><path
     style="fill:none;fill-opacity:1;stroke:#f0f6fc;stroke-width:0.218855;stroke-linecap:round;stroke-linejoin:round;stroke-dasharray:none;stroke-opacity:1"
     id="path88"
     transform="rotate(45)"
     sodipodi:type="arc"
     sodipodi:cx="135.05725"
     sodipodi:cy="-6.3638411"
     sodipodi:rx="3.8900001"
     sodipodi:ry="3.8907528"
     sodipodi:start="1.5707963"
     sodipodi:end="0"
     sodipodi:arc-type="arc"
     d="m 135.05725,-2.4730883 a 3.8900001,3.8907528 0 0 1 -3.59389,-2.4018261 3.8900001,3.8907528 0 0 1 0.84325,-4.2401043 3.8900001,3.8907528 0 0 1 4.23928,-0.8434092 3.8900001,3.8907528 0 0 1 2.40136,3.5945868"
     sodipodi:open="true"
     inkscape:label="scale_pot_arc" /><g
     id="g5"
     inkscape:label="start"><circle
       style="fill:none;fill-opacity:1;stroke:#f0f6fc;stroke-width:0.5;stroke-linecap:round;stroke-linejoin:round;stroke-dasharray:none;stroke-opacity:1"
       id="path2"
       cx="56"
       cy="102"
       r="2.75" /><rect
       style="fill:none;fill-opacity:1;stroke:#f0f6fc;stroke-width:0.500001;stroke-linecap:round;stroke-linejoin:round;stroke-dasharray:none;stroke-opacity:1"
       id="rect3"
       width="2.0265579e-06"
       height="2.0035098"
       x="56.110424"
       y="100.875" /><path
       style="fill:none;fill-opacity:1;stroke:#f0f6fc;stroke-width:0.499999;stroke-linecap:round;stroke-linejoin:round;stroke-dasharray:none;stroke-opacity:1"
       d="m 56.110408,100.875 -0.610409,0.5709"
       id="path3"
       sodipodi:nodetypes="cc" /></g><g
     style="fill:none;fill-opacity:1;stroke:#f0f6fc;stroke-width:1.89563;stroke-linecap:butt;stroke-linejoin:round;stroke-dasharray:none;stroke-opacity:1"
     id="g89"
     transform="matrix(0.26271149,0,0,0.2648238,162.7834,98.769294)"
     inkscape:label="cv"><g
       id="SVGRepo_bgCarrier-6"
       stroke-width="0"
       style="fill:none;fill-opacity:1;stroke:#f0f6fc;stroke-width:1.89563;stroke-linecap:butt;stroke-linejoin:round;stroke-dasharray:none;stroke-opacity:1" /><g
       id="SVGRepo_tracerCarrier-37"
       stroke-linecap="round"
       stroke-linejoin="round"
       style="fill:none;fill-opacity:1;stroke:#f0f6fc;stroke-width:1.89563;stroke-linecap:butt;stroke-linejoin:round;stroke-dasharray:none;stroke-opacity:1" /><g
       id="SVGRepo_iconCarrier-8"
       style="fill:none;fill-opacity:1;stroke:#f0f6fc;stroke-width:1.89563;stroke-linecap:butt;stroke-linejoin:round;stroke-dasharray:none;stroke-opacity:1"><defs
         id="defs1-8"><style
           id="style88">.cls-1{fill:none;stroke:#020202;stroke-miterlimit:10;stroke-width:1.86px;}</style></defs><polygon
         class="cls-1"
         points="5.5,12.86 8.29,1.71 18.5,1.71 13.86,9.14 17.57,9.14 7.36,20.29 9.21,12.86 "
         id="polygon1"
         style="fill:none;fill-opacity:1;stroke:#f0f6fc;stroke-width:1.69649;stroke-linecap:butt;stroke-linejoin:round;stroke-dasharray:none;stroke-opacity:1"
         transform="matrix(1.1173761,0,0,1.1173761,-0.536412,-0.09155338)" /></g></g><g
     id="g108"
     inkscape:label="end_of_sequence"
     transform="matrix(0.79999993,0,0,0.79999946,37.600014,20.400055)"
     style="stroke-width:1.25"><g
       id="g97"
       transform="matrix(0.41663015,0,0,0.41658419,110.23075,63.560934)"
       style="stroke-width:1.50021;stroke-dasharray:none"><rect
         style="fill:none;fill-opacity:1;stroke:#f0f6fc;stroke-width:1.50021;stroke-linecap:round;stroke-linejoin:round;stroke-dasharray:none;stroke-opacity:1"
         id="rect96"
         width="8.4849997"
         x="62.50169"
         y="197.23604"
         height="0.001"
         transform="rotate(-45)" /><rect
         style="fill:none;fill-opacity:1;stroke:#f0f6fc;stroke-width:1.50021;stroke-linecap:round;stroke-linejoin:round;stroke-dasharray:none;stroke-opacity:1"
         id="rect97"
         width="8.4849997"
         x="192.99403"
         y="-66.74469"
         height="0.001"
         transform="rotate(45)" /></g><circle
       style="fill:none;fill-opacity:1;stroke:#f0f6fc;stroke-width:0.5;stroke-linecap:round;stroke-linejoin:round;stroke-dasharray:none;stroke-opacity:1"
       id="path2-6"
       cx="188"
       cy="102"
       r="2.75"
       transform="matrix(1.2500001,0,0,1.2500009,-47.000022,-25.500086)" /></g><text
     xml:space="preserve"
     style="font-style:normal;font-variant:normal;font-weight:bold;font-stretch:normal;font-size:4.58611px;font-family:Monospace;-inkscape-font-specification:'Monospace Bold';writing-mode:lr-tb;direction:ltr;fill:#ffffff;stroke-width:0.499999;stroke-linecap:round;stroke-linejoin:round"
     x="7.8522053"
     y="12.904387"
     id="text4"
     inkscape:label="title"><tspan
       sodipodi:role="line"
       id="tspan4"
       style="font-style:normal;font-variant:normal;font-weight:bold;font-stretch:normal;font-size:4.58611px;font-family:Monospace;-inkscape-font-specification:'Monospace Bold';stroke-width:0.5"
       x="7.8522053"
       y="12.904387">entropy pool</tspan></text><g
     inkscape:groupmode="layer"
     id="layer2"
     inkscape:label="contributions"
     style="display:none"><rect
       style="display:none;fill:#008000;fill-opacity:1;stroke:none;stroke-width:0.499999;stroke-linecap:round;stroke-linejoin:round"
       id="rect1"
       width="4"
       height="4"
       x="12"
       y="32"
       rx="1"
       ry="1" /><rect
       style="fill:#008000;fill-opacity:1;stroke:none;stroke-width:0.499999;stroke-linecap:round;stroke-linejoin:round"
       id="rect450"
       width="4"
       height="4"
       x="187"
       y="32"
       rx="1"
       ry="1" /><rect
       style="fill:#008000;fill-opacity:1;stroke:none;stroke-width:0.499999;stroke-linecap:round;stroke-linejoin:round"
       id="rect739"
       width="4"
       height="4"
       x="12"
       y="77"
       rx="1"
       ry="1" /><rect
       style="fill:#008000;fill-opacity:1;stroke:none;stroke-width:0.499999;stroke-linecap:round;stroke-linejoin:round"
       id="rect774"
       width="4"
       height="4"
       x="187"
       y="77"
       rx="1"
       ry="1" /></g><g
     inkscape:groupmode="layer"
     id="layer1"
     inkscape:label="components"
     style="display:none"><circle
       style="fill:#ff0000;fill-opacity:1;stroke:none;stroke-width:0.423749;stroke-linecap:round;stroke-linejoin:round;stroke-dasharray:none;stroke-opacity:1"
       id="path23"
       cx="23"
       cy="91"
       inkscape:label="run"
       r="3" /><circle
       style="fill:#ff0000;fill-opacity:1;stroke:none;stroke-width:0.423749;stroke-linecap:round;stroke-linejoin:round;stroke-dasharray:none;stroke-opacity:1"
       id="circle23"
       cx="34"
       cy="91"
       r="3"
       inkscape:label="reset" /><circle
       style="fill:#ff0000;fill-opacity:1;stroke:none;stroke-width:0.423749;stroke-linecap:round;stroke-linejoin:round;stroke-dasharray:none;stroke-opacity:1"
       id="circle24"
       cx="45"
       cy="91"
       r="3"
       inkscape:label="random" /><circle
       style="fill:#ff0000;fill-opacity:1;stroke:none;stroke-width:0.423749;stroke-linecap:round;stroke-linejoin:round;stroke-dasharray:none;stroke-opacity:1"
       id="circle28"
       cx="56"
       cy="91"
       r="3"
       inkscape:label="start" /><circle
       style="fill:#ff0000;fill-opacity:1;stroke:none;stroke-width:0.423749;stroke-linecap:round;stroke-linejoin:round;stroke-dasharray:none;stroke-opacity:1"
       id="circle29"
       cx="67"
       cy="91"
       r="3"
       inkscape:label="length" /><circle
       style="fill:#ff0000;fill-opacity:1;stroke:none;stroke-width:0.423749;stroke-linecap:round;stroke-linejoin:round;stroke-dasharray:none;stroke-opacity:1"
       id="circle30"
       cx="78"
       cy="91"
       r="3"
       inkscape:label="ping_pong" /><circle
       style="fill:#00ff00;fill-opacity:1;stroke:none;stroke-width:0.564999;stroke-linecap:round;stroke-linejoin:round;stroke-dasharray:none;stroke-opacity:1"
       id="circle34"
       cx="23"
       cy="113"
       r="4"
       inkscape:label="run" /><circle
       style="fill:#00ff00;fill-opacity:1;stroke:none;stroke-width:0.564999;stroke-linecap:round;stroke-linejoin:round;stroke-dasharray:none;stroke-opacity:1"
       id="circle35"
       cx="34"
       cy="113"
       r="4"
       inkscape:label="reset" /><circle
       style="fill:#00ff00;fill-opacity:1;stroke:none;stroke-width:0.564999;stroke-linecap:round;stroke-linejoin:round;stroke-dasharray:none;stroke-opacity:1"
       id="circle36"
       cx="45"
       cy="113"
       r="4"
       inkscape:label="random" /><circle
       style="fill:#00ff00;fill-opacity:1;stroke:none;stroke-width:0.564999;stroke-linecap:round;stroke-linejoin:round;stroke-dasharray:none;stroke-opacity:1"
       id="circle37"
       cx="56"
       cy="113"
       r="4"
       inkscape:label="start" /><circle
       style="fill:#00ff00;fill-opacity:1;stroke:none;stroke-width:0.564999;stroke-linecap:round;stroke-linejoin:round;stroke-dasharray:none;stroke-opacity:1"
       id="circle38"
       cx="67"
       cy="113"
       r="4"
       inkscape:label="length" /><circle
       style="fill:#00ff00;fill-opacity:1;stroke:none;stroke-width:0.564999;stroke-linecap:round;stroke-linejoin:round;stroke-dasharray:none;stroke-opacity:1"
       id="circle39"
       cx="78"
       cy="113"
       r="4"
       inkscape:label="ping_pong" /><circle
       style="fill:#0000ff;fill-opacity:1;stroke:none;stroke-width:0.564999;stroke-linecap:round;stroke-linejoin:round;stroke-dasharray:none;stroke-opacity:1"
       id="circle43"
       cx="166"
       cy="113"
       r="4"
       inkscape:label="cv" /><circle
       style="fill:#0000ff;fill-opacity:1;stroke:none;stroke-width:0.564999;stroke-linecap:round;stroke-linejoin:round;stroke-dasharray:none;stroke-opacity:1"
       id="circle44"
       cx="177"
       cy="113"
       r="4"
       inkscape:label="trigger" /><circle
       style="fill:#0000ff;fill-opacity:1;stroke:none;stroke-width:0.564999;stroke-linecap:round;stroke-linejoin:round;stroke-dasharray:none;stroke-opacity:1"
       id="circle46"
       cx="188.00006"
       cy="113"
       r="4"
       inkscape:label="end_of_sequence" /><circle
       style="fill:#00ff00;fill-opacity:1;stroke:none;stroke-width:0.564999;stroke-linecap:round;stroke-linejoin:round;stroke-dasharray:none;stroke-opacity:1"
       id="circle47"
       cx="12"
       cy="113"
       r="4"
       inkscape:label="clock" /><circle
       style="fill:#ff00ff;fill-opacity:1;stroke:none;stroke-width:0.211875;stroke-linecap:round;stroke-linejoin:round;stroke-dasharray:none;stroke-opacity:1"
       id="circle49"
       cx="12"
       cy="91"
       inkscape:label="clock"
       r="1.5" /><circle
       style="fill:#00ff00;fill-opacity:1;stroke:none;stroke-width:0.564999;stroke-linecap:round;stroke-linejoin:round;stroke-dasharray:none;stroke-opacity:1"
       id="circle65"
       cx="89"
       cy="113"
       r="4"
       inkscape:label="filter" /><circle
       style="fill:#ff0000;fill-opacity:1;stroke:none;stroke-width:0.423749;stroke-linecap:round;stroke-linejoin:round;stroke-dasharray:none;stroke-opacity:1"
       id="circle66"
       cx="89"
       cy="91"
       r="3"
       inkscape:label="filter" /><circle
       style="fill:#00ff00;fill-opacity:1;stroke:none;stroke-width:0.564999;stroke-linecap:round;stroke-linejoin:round;stroke-dasharray:none;stroke-opacity:1"
       id="circle74"
       cx="100"
       cy="113"
       r="4"
       inkscape:label="scale" /><circle
       style="fill:#ff0000;fill-opacity:1;stroke:none;stroke-width:0.423749;stroke-linecap:round;stroke-linejoin:round;stroke-dasharray:none;stroke-opacity:1"
       id="circle75"
       cx="100"
       cy="91"
       r="3"
       inkscape:label="scale" /><rect
       style="display:none;fill:#ffff00;fill-opacity:1;stroke:none;stroke-width:0.56331;stroke-linecap:round;stroke-linejoin:round;stroke-dasharray:none;stroke-opacity:1"
       id="rect775"
       width="183"
       height="53"
       x="10"
       y="30"
       rx="4.7855892"
       ry="0.089229695"
       inkscape:label="contributions" /></g></svg>
