<?xml version="1.0" encoding="UTF-8" standalone="no"?>
<svg
   width="157.48mm"
   height="128.5mm"
   viewBox="0 0 157.47999 128.5"
   version="1.1"
   id="svg43"
   sodipodi:docname="EntropyPool6.svg"
   inkscape:version="1.4.3 (0d15f75, 2025-12-25)"
   xml:space="preserve"
   xmlns:inkscape="http://www.inkscape.org/namespaces/inkscape"
   xmlns:sodipodi="http://sodipodi.sourceforge.net/DTD/sodipodi-0.dtd"
   xmlns="http://www.w3.org/2000/svg"
   xmlns:svg="http://www.w3.org/2000/svg"><defs
     id="defs1"><inkscape:path-effect
       effect="fillet_chamfer"
       id="path-effect68"
       is_visible="true"
       lpeversion="1"
       nodesatellites_param="F,0,0,1,0,4.7855889,0,1 @ F,0,0,1,0,4.7855889,0,1 @ F,0,0,1,0,4.7855889,0,1 @ F,0,0,1,0,2.3072373,0,1"
       radius="0"
       unit="px"
       method="auto"
       mode="F"
       chamfer_steps="1"
       flexible="false"
       use_knot_distance="true"
       apply_no_radius="true"
       apply_with_radius="true"
       only_selected="false"
       hide_knots="false" /><rect
       x="298"
       y="27.5"
       width="265.5"
       height="58.5"
       id="rect4" /><pattern
       id="EMFhbasepattern"
       patternUnits="userSpaceOnUse"
       width="6"
       height="6"
       x="0"
       y="0" /><style
       id="style1-2">.cls-1{fill:none;stroke:#020202;stroke-miterlimit:10;stroke-width:1.86px;}</style></defs><sodipodi:namedview
     id="namedview43"
     pagecolor="#ffffff"
     bordercolor="#000000"
     borderopacity="0.25"
     inkscape:showpageshadow="2"
     inkscape:pageopacity="0.0"
     inkscape:pagecheckerboard="0"
     inkscape:deskcolor="#d1d1d1"
     inkscape:document-units="mm"
     inkscape:lockguides="true"
     inkscape:zoom="2.8284271"
     inkscape:cx="254.20489"
     inkscape:cy="135.7645"
     inkscape:window-width="3840"
     inkscape:window-height="2054"
     inkscape:window-x="-11"
     inkscape:window-y="3"
     inkscape:window-maximized="1"
     inkscape:current-layer="svg43"
     showguides="false" /><path
     id="background"
     style="display:inline;fill:#0d1117;stroke-width:0.999995;stroke-dasharray:none"
     d="M 0,128.5 1.2255252e-6,0 157.47999,6.3238192e-7 V 128.5 Z"
     inkscape:label="start github"
     sodipodi:nodetypes="ccccc" /><path
     id="path1"
     style="display:none;fill:#1c1c1c;fill-opacity:1;stroke-width:0.999995;stroke-dasharray:none"
     d="M 0,128.5 1.2255252e-6,0 157.47999,6.3238192e-7 V 128.5 Z"
     inkscape:label="start habamax" /><rect
     style="display:inline;fill:#000000;fill-opacity:0.41553748;stroke:none;stroke-width:0.563311;stroke-linecap:round;stroke-linejoin:round;stroke-dasharray:none;stroke-opacity:1"
     id="rect1"
     width="157.47998"
     height="61"
     x="6.7025081e-07"
     y="6.2399998"
     rx="4.7855887"
     ry="0.089229703"
     inkscape:label="screen" /><g
     id="g16"
     inkscape:label="labels - jetbrains mono semibold"><path
       style="fill:none;fill-opacity:1;stroke:#f0f6fc;stroke-width:0.5;stroke-linecap:round;stroke-linejoin:round;stroke-dasharray:none;stroke-opacity:1;paint-order:stroke fill markers"
       d="m 88.066104,106.30761 h 2.092369 a 1.2554217,1.5 0 0 0 1.255422,-1.5 v -3 a 1.2554217,1.5 0 0 0 -1.255422,-1.5 h -2.092369"
       id="path71"
       sodipodi:nodetypes="cssssc"
       inkscape:label="offset" /><ellipse
       style="fill:#f0f6fc;fill-opacity:1;stroke:#f0f6fc;stroke-width:0.400001;stroke-linecap:round;stroke-linejoin:bevel;stroke-dasharray:none;stroke-opacity:1"
       id="path67"
       cx="78.739998"
       cy="103.3075"
       rx="1.2999995"
       ry="1.2997745"
       inkscape:label="filter" /><path
       style="fill:none;fill-opacity:1;stroke:#f0f6fc;stroke-width:0.5;stroke-linecap:round;stroke-linejoin:round;stroke-dasharray:none;stroke-opacity:1;paint-order:stroke fill markers"
       d="m 69.413895,100.30739 h -2.092369 a 1.2554217,1.5 0 0 0 -1.255422,1.5 v 3 a 1.2554217,1.5 0 0 0 1.255422,1.5 h 2.092369"
       id="path65"
       sodipodi:nodetypes="cssssc"
       inkscape:label="start" /><text
       xml:space="preserve"
       style="font-style:normal;font-variant:normal;font-weight:600;font-stretch:normal;font-size:3.52778px;font-family:'JetBrains Mono';-inkscape-font-specification:'JetBrains Mono, Semi-Bold';font-variant-ligatures:normal;font-variant-caps:normal;font-variant-numeric:normal;font-variant-east-asian:normal;writing-mode:lr-tb;direction:ltr;display:none;fill:#f0f6fc;stroke-width:0.499999;stroke-linecap:round;stroke-linejoin:round;fill-opacity:1"
       x="142.55983"
       y="104.36986"
       id="text55"
       inkscape:label="cv"><tspan
         sodipodi:role="line"
         id="tspan55"
         style="font-style:normal;font-variant:normal;font-weight:600;font-stretch:normal;font-size:3.52778px;font-family:'JetBrains Mono';-inkscape-font-specification:'JetBrains Mono, Semi-Bold';font-variant-ligatures:normal;font-variant-caps:normal;font-variant-numeric:normal;font-variant-east-asian:normal;stroke-width:0.5;fill:#f0f6fc;fill-opacity:1"
         x="142.55983"
         y="104.36986">cv</tspan></text><text
       xml:space="preserve"
       style="font-style:normal;font-variant:normal;font-weight:600;font-stretch:normal;font-size:3.52778px;font-family:'JetBrains Mono';-inkscape-font-specification:'JetBrains Mono, Semi-Bold';font-variant-ligatures:normal;font-variant-caps:normal;font-variant-numeric:normal;font-variant-east-asian:normal;writing-mode:lr-tb;direction:ltr;display:none;fill:#f0f6fc;stroke-width:0.499999;stroke-linecap:round;stroke-linejoin:round;fill-opacity:1"
       x="129.45737"
       y="104.36986"
       id="text9"
       inkscape:label="gate"><tspan
         sodipodi:role="line"
         id="tspan1"
         style="font-style:normal;font-variant:normal;font-weight:600;font-stretch:normal;font-size:3.52778px;font-family:'JetBrains Mono';-inkscape-font-specification:'JetBrains Mono, Semi-Bold';font-variant-ligatures:normal;font-variant-caps:normal;font-variant-numeric:normal;font-variant-east-asian:normal;stroke-width:0.5;fill:#f0f6fc;fill-opacity:1"
         x="129.45737"
         y="104.36986">gate</tspan></text><text
       xml:space="preserve"
       style="font-style:normal;font-variant:normal;font-weight:600;font-stretch:normal;font-size:3.52778px;font-family:'JetBrains Mono';-inkscape-font-specification:'JetBrains Mono, Semi-Bold';font-variant-ligatures:normal;font-variant-caps:normal;font-variant-numeric:normal;font-variant-east-asian:normal;writing-mode:lr-tb;direction:ltr;display:none;fill:#f0f6fc;fill-opacity:1;stroke-width:0.499999;stroke-linecap:round;stroke-linejoin:round"
       x="119.6426"
       y="104.36986"
       id="text54"
       inkscape:label="trigger"><tspan
         sodipodi:role="line"
         id="tspan54"
         style="font-style:normal;font-variant:normal;font-weight:600;font-stretch:normal;font-size:3.52778px;font-family:'JetBrains Mono';-inkscape-font-specification:'JetBrains Mono, Semi-Bold';font-variant-ligatures:normal;font-variant-caps:normal;font-variant-numeric:normal;font-variant-east-asian:normal;fill:#f0f6fc;fill-opacity:1;stroke-width:0.5"
         x="119.6426"
         y="104.36986">trg</tspan></text><text
       xml:space="preserve"
       style="font-style:normal;font-variant:normal;font-weight:600;font-stretch:normal;font-size:3.52778px;font-family:'JetBrains Mono';-inkscape-font-specification:'JetBrains Mono, Semi-Bold';font-variant-ligatures:normal;font-variant-caps:normal;font-variant-numeric:normal;font-variant-east-asian:normal;writing-mode:lr-tb;direction:ltr;display:none;fill:#f0f6fc;stroke-width:0.499999;stroke-linecap:round;stroke-linejoin:round;fill-opacity:1"
       x="108.5597"
       y="104.36986"
       id="text53"
       inkscape:label="end of sequence"><tspan
         sodipodi:role="line"
         id="tspan53"
         style="font-style:normal;font-variant:normal;font-weight:600;font-stretch:normal;font-size:3.52778px;font-family:'JetBrains Mono';-inkscape-font-specification:'JetBrains Mono, Semi-Bold';font-variant-ligatures:normal;font-variant-caps:normal;font-variant-numeric:normal;font-variant-east-asian:normal;stroke-width:0.5;fill:#f0f6fc;fill-opacity:1"
         x="108.5597"
         y="104.36986">eos</tspan></text><text
       xml:space="preserve"
       style="font-style:normal;font-variant:normal;font-weight:600;font-stretch:normal;font-size:3.52778px;font-family:'JetBrains Mono';-inkscape-font-specification:'JetBrains Mono, Semi-Bold';font-variant-ligatures:normal;font-variant-caps:normal;font-variant-numeric:normal;font-variant-east-asian:normal;writing-mode:lr-tb;direction:ltr;display:none;fill:#f0f6fc;stroke-width:0.499999;stroke-linecap:round;stroke-linejoin:round;fill-opacity:1"
       x="42.530109"
       y="104.36986"
       id="text49"
       inkscape:label="randomize"><tspan
         sodipodi:role="line"
         id="tspan49"
         style="font-style:normal;font-variant:normal;font-weight:600;font-stretch:normal;font-size:3.52778px;font-family:'JetBrains Mono';-inkscape-font-specification:'JetBrains Mono, Semi-Bold';font-variant-ligatures:normal;font-variant-caps:normal;font-variant-numeric:normal;font-variant-east-asian:normal;stroke-width:0.5;fill:#f0f6fc;fill-opacity:1"
         x="42.530109"
         y="104.36986">rnd</tspan></text><text
       xml:space="preserve"
       style="font-style:normal;font-variant:normal;font-weight:600;font-stretch:normal;font-size:3.52778px;font-family:'JetBrains Mono';-inkscape-font-specification:'JetBrains Mono, Semi-Bold';font-variant-ligatures:normal;font-variant-caps:normal;font-variant-numeric:normal;font-variant-east-asian:normal;writing-mode:lr-tb;direction:ltr;display:none;fill:#f0f6fc;stroke-width:0.499999;stroke-linecap:round;stroke-linejoin:round;fill-opacity:1"
       x="31.51211"
       y="104.37338"
       id="text48"
       inkscape:label="reset"><tspan
         sodipodi:role="line"
         id="tspan48"
         style="font-style:normal;font-variant:normal;font-weight:600;font-stretch:normal;font-size:3.52778px;font-family:'JetBrains Mono';-inkscape-font-specification:'JetBrains Mono, Semi-Bold';font-variant-ligatures:normal;font-variant-caps:normal;font-variant-numeric:normal;font-variant-east-asian:normal;stroke-width:0.5;fill:#f0f6fc;fill-opacity:1"
         x="31.51211"
         y="104.37338">rst</tspan></text><text
       xml:space="preserve"
       style="font-style:normal;font-variant:normal;font-weight:600;font-stretch:normal;font-size:3.52778px;font-family:'JetBrains Mono';-inkscape-font-specification:'JetBrains Mono, Semi-Bold';font-variant-ligatures:normal;font-variant-caps:normal;font-variant-numeric:normal;font-variant-east-asian:normal;writing-mode:lr-tb;direction:ltr;display:none;fill:#f0f6fc;stroke-width:0.499999;stroke-linecap:round;stroke-linejoin:round;fill-opacity:1"
       x="20.52611"
       y="104.36986"
       id="text47"
       inkscape:label="run"><tspan
         sodipodi:role="line"
         id="tspan47"
         style="font-style:normal;font-variant:normal;font-weight:600;font-stretch:normal;font-size:3.52778px;font-family:'JetBrains Mono';-inkscape-font-specification:'JetBrains Mono, Semi-Bold';font-variant-ligatures:normal;font-variant-caps:normal;font-variant-numeric:normal;font-variant-east-asian:normal;stroke-width:0.5;fill:#f0f6fc;fill-opacity:1"
         x="20.52611"
         y="104.36986">run</tspan></text><text
       xml:space="preserve"
       style="font-style:normal;font-variant:normal;font-weight:600;font-stretch:normal;font-size:3.52778px;font-family:'JetBrains Mono';-inkscape-font-specification:'JetBrains Mono, Semi-Bold';font-variant-ligatures:normal;font-variant-caps:normal;font-variant-numeric:normal;font-variant-east-asian:normal;writing-mode:lr-tb;direction:ltr;display:none;fill:#f0f6fc;stroke-width:0.499999;stroke-linecap:round;stroke-linejoin:round;fill-opacity:1"
       x="9.484252"
       y="104.36986"
       id="text46"
       inkscape:label="clock"><tspan
         sodipodi:role="line"
         id="tspan46"
         style="font-style:normal;font-variant:normal;font-weight:600;font-stretch:normal;font-size:3.52778px;font-family:'JetBrains Mono';-inkscape-font-specification:'JetBrains Mono, Semi-Bold';font-variant-ligatures:normal;font-variant-caps:normal;font-variant-numeric:normal;font-variant-east-asian:normal;stroke-width:0.5;fill:#f0f6fc;fill-opacity:1"
         x="9.484252"
         y="104.36986">clk</tspan></text><path
       style="font-weight:600;font-size:3.52778px;font-family:'JetBrains Mono';-inkscape-font-specification:'JetBrains Mono, Semi-Bold';fill:#f0f6fc;stroke-width:0.5;stroke-linecap:round;stroke-linejoin:round;fill-opacity:1"
       d="m 143.64639,104.40514 q -0.36337,0 -0.58209,-0.20109 -0.21872,-0.20108 -0.21872,-0.55033 v -0.508 q 0,-0.34925 0.21872,-0.55034 0.21872,-0.20108 0.58209,-0.20108 0.35277,0 0.56444,0.18345 0.21167,0.18344 0.22578,0.50094 h -0.37747 q -0.0106,-0.16581 -0.12348,-0.25753 -0.10936,-0.0917 -0.28927,-0.0917 -0.19403,0 -0.30692,0.10936 -0.11289,0.10583 -0.11289,0.30339 v 0.51153 q 0,0.20108 0.11289,0.31044 0.11289,0.10584 0.30692,0.10584 0.18344,0 0.2928,-0.0917 0.10936,-0.0917 0.11995,-0.26105 h 0.37747 q -0.0141,0.3175 -0.22578,0.50447 -0.21167,0.18345 -0.56444,0.18345 z m 1.84503,-0.0353 -0.65617,-1.94028 h 0.40217 l 0.39864,1.24178 q 0.0353,0.10936 0.0635,0.21872 0.0282,0.10583 0.0423,0.17639 0.0141,-0.0706 0.0353,-0.17639 0.0247,-0.10936 0.06,-0.21872 l 0.39511,-1.24178 h 0.40217 l -0.65264,1.94028 z"
       id="text23"
       inkscape:label="cv"
       aria-label="cv" /><path
       style="font-weight:600;font-size:3.52778px;font-family:'JetBrains Mono';-inkscape-font-specification:'JetBrains Mono, Semi-Bold';fill:#f0f6fc;stroke-width:0.5;stroke-linecap:round;stroke-linejoin:round;fill-opacity:1"
       d="m 130.0077,105.00486 v -0.32809 h 0.54681 q 0.15875,0 0.25047,-0.0882 0.0917,-0.0882 0.0917,-0.23989 v -0.14464 l 0.007,-0.32455 q -0.0459,0.17286 -0.18345,0.26811 -0.13405,0.0952 -0.33514,0.0952 -0.29986,0 -0.47272,-0.19403 -0.17286,-0.19403 -0.17286,-0.53269 v -0.39159 q 0,-0.33514 0.17286,-0.53269 0.17286,-0.19756 0.47272,-0.19756 0.20109,0 0.33514,0.0952 0.13406,0.0953 0.17992,0.26811 v -0.32808 h 0.37394 v 1.92617 q 0,0.29986 -0.19402,0.47272 -0.1905,0.17639 -0.52212,0.17639 z m 0.50095,-1.08303 q 0.17991,0 0.28222,-0.10936 0.10583,-0.11289 0.10583,-0.31397 v -0.35278 q 0,-0.19756 -0.10583,-0.30692 -0.10231,-0.11289 -0.28222,-0.11289 -0.18698,0 -0.28928,0.10584 -0.0988,0.10583 -0.0988,0.28927 v 0.40217 q 0,0.18697 0.0988,0.29281 0.1023,0.10583 0.28928,0.10583 z m 1.92969,0.48331 q -0.29633,0 -0.47272,-0.16581 -0.17286,-0.16933 -0.17286,-0.44097 0,-0.27517 0.18697,-0.44098 0.18697,-0.16933 0.49742,-0.16933 h 0.53622 v -0.14111 q 0,-0.33514 -0.37747,-0.33514 -0.16934,0 -0.27164,0.0635 -0.10231,0.0635 -0.10936,0.17639 h -0.37395 q 0.0176,-0.24342 0.21873,-0.39864 0.20108,-0.15875 0.53975,-0.15875 0.35983,0 0.55739,0.17286 0.19755,0.16934 0.19755,0.47625 v 1.32645 h -0.37394 v -0.36336 h -0.004 q -0.0247,0.18697 -0.17639,0.2928 -0.1517,0.10584 -0.40217,0.10584 z m 0.10936,-0.31398 q 0.2152,0 0.33867,-0.1023 0.127,-0.10584 0.127,-0.28222 v -0.25048 h -0.508 q -0.15169,0 -0.24342,0.0882 -0.0882,0.0882 -0.0882,0.22578 0,0.14816 0.0988,0.23636 0.0988,0.0847 0.27516,0.0847 z m 2.39537,0.2787 q -0.25753,0 -0.40922,-0.14817 -0.1517,-0.14817 -0.1517,-0.40217 v -1.04422 h -0.54681 v -0.34572 h 0.54681 v -0.54681 h 0.381 v 0.54681 h 0.78317 v 0.34572 h -0.78317 v 1.0407 q 0,0.0917 0.0529,0.15169 0.0529,0.0564 0.14464,0.0564 h 0.56797 v 0.34572 z m 1.92264,0.0353 q -0.35631,0 -0.5715,-0.20814 -0.2152,-0.20814 -0.2152,-0.56798 v -0.45861 q 0,-0.35983 0.2152,-0.56797 0.21519,-0.20814 0.5715,-0.20814 0.23989,0 0.41628,0.0952 0.17639,0.0917 0.27164,0.26106 0.0988,0.16933 0.0988,0.39511 v 0.34925 h -1.2065 v 0.15875 q 0,0.20461 0.11289,0.3175 0.11289,0.11289 0.30692,0.11289 0.15875,0 0.26458,-0.0564 0.10584,-0.06 0.127,-0.16227 h 0.37748 q -0.0388,0.24694 -0.25048,0.39511 -0.20814,0.14464 -0.51858,0.14464 z m -0.41981,-1.25942 v 0.0811 h 0.83961 v -0.0847 q 0,-0.21519 -0.10936,-0.33161 -0.10936,-0.11642 -0.31044,-0.11642 -0.20108,0 -0.31045,0.11995 -0.10936,0.11641 -0.10936,0.33161 z"
       id="text22"
       inkscape:label="gate"
       aria-label="gate" /><path
       style="font-weight:600;font-size:3.52778px;font-family:'JetBrains Mono';-inkscape-font-specification:'JetBrains Mono, Semi-Bold';fill:#f0f6fc;stroke-width:0.5;stroke-linecap:round;stroke-linejoin:round;fill-opacity:1"
       d="m 120.89496,104.36986 q -0.25753,0 -0.40922,-0.14817 -0.15169,-0.14817 -0.15169,-0.40217 v -1.04422 h -0.54681 v -0.34572 h 0.54681 v -0.54681 h 0.381 v 0.54681 h 0.78316 v 0.34572 h -0.78316 v 1.0407 q 0,0.0917 0.0529,0.15169 0.0529,0.0564 0.14464,0.0564 h 0.56797 v 0.34572 z m 1.2312,0 v -1.94028 h 0.37747 v 0.381 0 q 0.0282,-0.19403 0.16581,-0.30339 0.13758,-0.11289 0.36336,-0.11289 0.29986,0 0.46567,0.18697 0.1658,0.18698 0.1658,0.52564 v 0.17286 h -0.381 v -0.16227 q 0,-0.39159 -0.38453,-0.39159 -0.1905,0 -0.2928,0.11289 -0.0988,0.10936 -0.0988,0.32103 v 1.21003 z m 2.30011,0.635 v -0.32809 h 0.54681 q 0.15875,0 0.25047,-0.0882 0.0917,-0.0882 0.0917,-0.23989 v -0.14464 l 0.007,-0.32455 q -0.0459,0.17286 -0.18344,0.26811 -0.13406,0.0952 -0.33514,0.0952 -0.29987,0 -0.47273,-0.19403 -0.17286,-0.19403 -0.17286,-0.53269 v -0.39159 q 0,-0.33514 0.17286,-0.53269 0.17286,-0.19756 0.47273,-0.19756 0.20108,0 0.33514,0.0952 0.13405,0.0953 0.17991,0.26811 v -0.32808 h 0.37395 v 1.92617 q 0,0.29986 -0.19403,0.47272 -0.1905,0.17639 -0.52211,0.17639 z m 0.50095,-1.08303 q 0.17992,0 0.28222,-0.10936 0.10583,-0.11289 0.10583,-0.31397 v -0.35278 q 0,-0.19756 -0.10583,-0.30692 -0.1023,-0.11289 -0.28222,-0.11289 -0.18697,0 -0.28928,0.10584 -0.0988,0.10583 -0.0988,0.28927 v 0.40217 q 0,0.18697 0.0988,0.29281 0.10231,0.10583 0.28928,0.10583 z"
       id="text24"
       inkscape:label="trigger"
       aria-label="trg" /><path
       style="font-weight:600;font-size:3.52778px;font-family:'JetBrains Mono';-inkscape-font-specification:'JetBrains Mono, Semi-Bold';fill:#f0f6fc;stroke-width:0.5;stroke-linecap:round;stroke-linejoin:round;fill-opacity:1"
       d="m 109.61803,104.40514 q -0.3563,0 -0.5715,-0.20814 -0.21519,-0.20814 -0.21519,-0.56798 v -0.45861 q 0,-0.35983 0.21519,-0.56797 0.2152,-0.20814 0.5715,-0.20814 0.23989,0 0.41628,0.0952 0.17639,0.0917 0.27164,0.26106 0.0988,0.16933 0.0988,0.39511 v 0.34925 h -1.2065 v 0.15875 q 0,0.20461 0.11289,0.3175 0.11289,0.11289 0.30691,0.11289 0.15875,0 0.26459,-0.0564 0.10583,-0.06 0.127,-0.16227 h 0.37747 q -0.0388,0.24694 -0.25047,0.39511 -0.20814,0.14464 -0.51859,0.14464 z m -0.4198,-1.25942 v 0.0811 h 0.83961 v -0.0847 q 0,-0.21519 -0.10936,-0.33161 -0.10936,-0.11642 -0.31045,-0.11642 -0.20108,0 -0.31044,0.11995 -0.10936,0.11641 -0.10936,0.33161 z m 2.53647,1.25589 q -0.35983,0 -0.57502,-0.20814 -0.21167,-0.20814 -0.21167,-0.56797 v -0.45156 q 0,-0.36336 0.21167,-0.56797 0.21166,-0.20814 0.57502,-0.20814 0.36336,0 0.57503,0.20814 0.21167,0.20461 0.21167,0.56797 v 0.45156 q 0,0.35983 -0.2152,0.56797 -0.21166,0.20814 -0.5715,0.20814 z m 0,-0.33514 q 0.1905,0 0.29634,-0.10583 0.10936,-0.10937 0.10936,-0.31045 v -0.50094 q 0,-0.20109 -0.10936,-0.30692 -0.10584,-0.10936 -0.29634,-0.10936 -0.1905,0 -0.29986,0.10936 -0.10583,0.10583 -0.10583,0.30692 v 0.50094 q 0,0.20108 0.10583,0.31045 0.10936,0.10583 0.29986,0.10583 z m 2.03906,0.33514 q -0.33514,0 -0.52564,-0.1517 -0.1905,-0.15169 -0.1905,-0.42333 h 0.37747 q 0,0.12347 0.0882,0.19403 0.0882,0.067 0.25047,0.067 h 0.15522 q 0.16581,0 0.25753,-0.067 0.0917,-0.0706 0.0917,-0.19756 0,-0.22225 -0.23636,-0.254 l -0.51153,-0.0705 q -0.21519,-0.0282 -0.33161,-0.16934 -0.11641,-0.14464 -0.11641,-0.37394 0,-0.26459 0.17639,-0.40922 0.17991,-0.14817 0.508,-0.14817 h 0.15875 q 0.30339,0 0.49036,0.14464 0.1905,0.14464 0.20108,0.381 h -0.381 q -0.007,-0.0952 -0.0917,-0.15522 -0.0811,-0.0635 -0.21872,-0.0635 h -0.15875 q -0.1517,0 -0.23637,0.067 -0.0811,0.067 -0.0811,0.17639 0,0.18345 0.20108,0.21167 l 0.47978,0.0635 q 0.51858,0.0705 0.51858,0.59619 0,0.2787 -0.18697,0.43039 -0.18697,0.1517 -0.5327,0.1517 z"
       id="text20"
       inkscape:label="end of sequence"
       aria-label="eos" /><path
       style="font-weight:600;font-size:3.52778px;font-family:'JetBrains Mono';-inkscape-font-specification:'JetBrains Mono, Semi-Bold';fill:#f0f6fc;stroke-width:0.5;stroke-linecap:round;stroke-linejoin:round;fill-opacity:1"
       d="m 42.896999,104.36986 v -1.94028 h 0.377472 v 0.381 0 q 0.02822,-0.19403 0.165806,-0.30339 0.137583,-0.11289 0.363361,-0.11289 0.299861,0 0.465667,0.18697 0.165806,0.18698 0.165806,0.52564 v 0.17286 H 44.05411 v -0.16227 q 0,-0.39159 -0.384528,-0.39159 -0.1905,0 -0.292805,0.11289 -0.09878,0.10936 -0.09878,0.32103 v 1.21003 z m 2.046113,0 v -1.94028 h 0.377473 v 0.37042 0 q 0.02822,-0.1905 0.162278,-0.29634 0.137583,-0.10936 0.356305,-0.10936 0.289278,0 0.46214,0.18697 0.172861,0.18345 0.172861,0.49742 v 1.29117 h -0.381 v -1.23473 q 0,-0.20108 -0.102306,-0.30691 -0.102306,-0.10936 -0.278695,-0.10936 -0.179916,0 -0.28575,0.11289 -0.102305,0.11288 -0.102305,0.31397 v 1.22414 z m 2.734031,0.0353 q -0.289278,0 -0.462139,-0.19756 -0.172861,-0.19756 -0.172861,-0.53269 v -0.54681 q 0,-0.33867 0.172861,-0.53622 0.172861,-0.19756 0.462139,-0.19756 0.208139,0 0.34925,0.10583 0.144639,0.10584 0.186973,0.29634 l -0.01058,-0.44803 v -0.55386 h 0.381 v 2.57528 H 48.20631 v -0.36689 q -0.03881,0.1905 -0.179917,0.29633 -0.137583,0.10584 -0.34925,0.10584 z m 0.134056,-0.33162 q 0.183444,0 0.28575,-0.10936 0.105834,-0.11289 0.105834,-0.3175 v -0.49741 q 0,-0.20109 -0.105834,-0.31045 -0.102306,-0.11289 -0.28575,-0.11289 -0.183445,0 -0.28575,0.0988 -0.102306,0.0952 -0.102306,0.30692 v 0.53269 q 0,0.2152 0.102306,0.31397 0.102305,0.0953 0.28575,0.0953 z"
       id="text19"
       inkscape:label="randomize"
       aria-label="rnd" /><path
       style="font-weight:600;font-size:3.52778px;font-family:'JetBrains Mono';-inkscape-font-specification:'JetBrains Mono, Semi-Bold';fill:#f0f6fc;stroke-width:0.5;stroke-linecap:round;stroke-linejoin:round;fill-opacity:1"
       d="m 31.878999,104.37338 v -1.94028 h 0.377472 v 0.381 0 q 0.02822,-0.19402 0.165806,-0.30339 0.137583,-0.11288 0.363361,-0.11288 0.299862,0 0.465667,0.18697 0.165806,0.18697 0.165806,0.52564 v 0.17286 h -0.381 v -0.16228 q 0,-0.39158 -0.384528,-0.39158 -0.1905,0 -0.292806,0.11289 -0.09878,0.10936 -0.09878,0.32102 v 1.21003 z m 2.730503,0.0318 q -0.335139,0 -0.525639,-0.15169 -0.1905,-0.1517 -0.1905,-0.42334 h 0.377472 q 0,0.12348 0.08819,0.19403 0.08819,0.067 0.250472,0.067 h 0.155222 q 0.165806,0 0.257528,-0.067 0.09172,-0.0705 0.09172,-0.19755 0,-0.22225 -0.236362,-0.254 l -0.511528,-0.0706 q -0.215194,-0.0282 -0.331611,-0.16933 -0.116417,-0.14464 -0.116417,-0.37395 0,-0.26458 0.176389,-0.40922 0.179917,-0.14817 0.508,-0.14817 h 0.158751 q 0.303389,0 0.490361,0.14464 0.1905,0.14464 0.201083,0.381 h -0.381 q -0.0071,-0.0953 -0.09172,-0.15522 -0.08114,-0.0635 -0.218722,-0.0635 h -0.158751 q -0.151694,0 -0.236361,0.067 -0.08114,0.067 -0.08114,0.17639 0,0.18344 0.201084,0.21166 l 0.479778,0.0635 q 0.518583,0.0706 0.518583,0.5962 0,0.27869 -0.186972,0.43039 -0.186972,0.15169 -0.532695,0.15169 z m 2.388309,-0.0318 q -0.257528,0 -0.409223,-0.14816 -0.151695,-0.14817 -0.151695,-0.40217 v -1.04422 h -0.546805 v -0.34573 h 0.546805 v -0.5468 h 0.381001 v 0.5468 h 0.783167 v 0.34573 h -0.783167 v 1.04069 q 0,0.0917 0.05292,0.1517 0.05292,0.0564 0.144639,0.0564 h 0.567973 v 0.34572 z"
       id="text18"
       inkscape:label="reset"
       aria-label="rst" /><path
       style="font-weight:600;font-size:3.52778px;font-family:'JetBrains Mono';-inkscape-font-specification:'JetBrains Mono, Semi-Bold';fill:#f0f6fc;stroke-width:0.5;stroke-linecap:round;stroke-linejoin:round;fill-opacity:1"
       d="m 20.892999,104.36986 v -1.94028 h 0.377472 v 0.381 0 q 0.02822,-0.19403 0.165806,-0.30339 0.137583,-0.11289 0.363361,-0.11289 0.299862,0 0.465667,0.18697 0.165806,0.18698 0.165806,0.52564 v 0.17286 h -0.381 v -0.16227 q 0,-0.39159 -0.384528,-0.39159 -0.1905,0 -0.292806,0.11289 -0.09878,0.10936 -0.09878,0.32103 v 1.21003 z m 2.804586,0.0353 q -0.352778,0 -0.560917,-0.20109 -0.204611,-0.20461 -0.204611,-0.55386 v -1.22061 h 0.381 v 1.21708 q 0,0.19756 0.102306,0.31398 0.102306,0.11288 0.282222,0.11288 0.183445,0 0.285751,-0.11288 0.105833,-0.11642 0.105833,-0.31398 v -1.21708 h 0.381 v 1.22061 q 0,0.34925 -0.211667,0.55386 -0.208139,0.20109 -0.560917,0.20109 z m 1.358197,-0.0353 v -1.94028 h 0.377473 v 0.37042 0 q 0.02822,-0.1905 0.162277,-0.29634 0.137584,-0.10936 0.356306,-0.10936 0.289278,0 0.462139,0.18697 0.172862,0.18345 0.172862,0.49742 v 1.29117 h -0.381001 v -1.23473 q 0,-0.20108 -0.102305,-0.30691 -0.102306,-0.10936 -0.278695,-0.10936 -0.179917,0 -0.28575,0.11289 -0.102306,0.11288 -0.102306,0.31397 v 1.22414 z"
       id="text17"
       inkscape:label="run"
       aria-label="run" /><path
       style="font-weight:600;font-size:3.52778px;font-family:'JetBrains Mono';-inkscape-font-specification:'JetBrains Mono, Semi-Bold';fill:#f0f6fc;stroke-width:0.5;stroke-linecap:round;stroke-linejoin:round;fill-opacity:1"
       d="m 10.570808,104.40514 q -0.363361,0 -0.5820835,-0.20109 -0.2187223,-0.20108 -0.2187223,-0.55033 v -0.508 q 0,-0.34925 0.2187223,-0.55034 0.2187225,-0.20108 0.5820835,-0.20108 0.352778,0 0.564445,0.18345 0.211667,0.18344 0.225778,0.50094 h -0.377473 q -0.01058,-0.16581 -0.123472,-0.25753 -0.109361,-0.0917 -0.289278,-0.0917 -0.194028,0 -0.306917,0.10936 -0.112889,0.10583 -0.112889,0.30339 v 0.51153 q 0,0.20108 0.112889,0.31044 0.112889,0.10584 0.306917,0.10584 0.183445,0 0.292806,-0.0917 0.109361,-0.0917 0.119944,-0.26105 h 0.377473 q -0.01411,0.3175 -0.225778,0.50447 -0.211667,0.18345 -0.564445,0.18345 z m 2.388309,-0.0353 q -0.275167,0 -0.440973,-0.15875 -0.162278,-0.16228 -0.162278,-0.43039 v -1.64042 h -0.652639 v -0.34572 h 1.03364 v 1.97908 q 0,0.11642 0.0635,0.18345 0.0635,0.067 0.172861,0.067 h 0.585611 v 0.34572 z m 1.072446,0 v -2.57528 h 0.381 v 1.41464 h 0.342195 l 0.500945,-0.77964 h 0.426861 l -0.596195,0.93133 0.624418,1.00895 h -0.437445 l -0.515056,-0.83256 h -0.345723 v 0.83256 z"
       id="text16"
       inkscape:label="clock"
       aria-label="clk" /></g><g
     id="g23"
     inkscape:label="title - league mono ultralight semiexpanded modified l+kern"><path
       style="fill:#f0f6fc;fill-opacity:1;stroke:#f0f6fc;stroke-width:0.232;stroke-linecap:butt;stroke-linejoin:round;stroke-miterlimit:4;stroke-dasharray:none;stroke-opacity:1;paint-order:stroke fill markers"
       d="M 7.2399998,68.567 H 150.23987"
       id="path73"
       sodipodi:nodetypes="cc"
       inkscape:label="border" /><path
       style="font-weight:200;font-stretch:semi-expanded;font-size:4.93889px;font-family:'League Mono';-inkscape-font-specification:'League Mono, Ultra-Light Semi-Expanded';display:inline;fill:#f0f6fc;fill-opacity:1;stroke-width:0.5;stroke-linecap:round;stroke-linejoin:round"
       d="m 113.67912,71.944817 c -0.0411,0.05597 -0.11027,0.124295 -0.20743,0.204964 -0.0955,0.08067 -0.21978,0.152283 -0.37289,0.214842 -0.1531,0.06091 -0.33502,0.09137 -0.54574,0.09137 -0.23048,0 -0.43956,-0.04774 -0.62724,-0.143228 -0.18603,-0.09713 -0.3342,-0.242006 -0.4445,-0.434623 -0.10866,-0.192617 -0.16299,-0.433799 -0.16299,-0.723547 0,-0.291395 0.0576,-0.531754 0.17286,-0.721078 0.1169,-0.189324 0.27,-0.330082 0.45932,-0.422275 0.18933,-0.09219 0.39347,-0.138289 0.61242,-0.138289 0.24036,0 0.4478,0.05597 0.6223,0.167923 0.17451,0.110301 0.30868,0.265053 0.40252,0.464255 0.0955,0.197556 0.14323,0.426391 0.14323,0.686506 h -2.12372 c 0.005,0.319381 0.0894,0.570441 0.25435,0.75318 0.16628,0.182739 0.39677,0.274109 0.69145,0.274109 0.17286,0 0.31938,-0.02469 0.43956,-0.07408 0.12018,-0.05103 0.21649,-0.109477 0.28892,-0.17533 0.0741,-0.0675 0.12677,-0.126765 0.15805,-0.1778 z m -1.11866,-1.837266 c -0.24364,0 -0.45437,0.07079 -0.63217,0.212372 -0.1778,0.141581 -0.28234,0.363831 -0.31362,0.66675 h 1.81751 c 0,-0.136643 -0.0313,-0.272462 -0.0938,-0.407458 -0.0609,-0.134997 -0.15559,-0.246945 -0.28399,-0.335845 -0.1284,-0.09055 -0.29303,-0.135819 -0.49389,-0.135819 z m 2.47438,2.294114 V 69.93222 h 0.24695 l 0.0222,0.493889 c 0.0971,-0.159691 0.23049,-0.291394 0.40005,-0.395111 0.16958,-0.105363 0.36631,-0.158045 0.5902,-0.158045 0.59596,0 0.89394,0.358893 0.89394,1.076678 v 1.452034 h -0.28646 v -1.410053 c 0,-0.288102 -0.0543,-0.506236 -0.16298,-0.654403 -0.107,-0.148167 -0.27739,-0.22225 -0.51117,-0.22225 -0.14981,0 -0.29139,0.04033 -0.42475,0.121003 -0.13334,0.07902 -0.24447,0.185208 -0.33337,0.318558 -0.0889,0.13335 -0.1424,0.279047 -0.16052,0.437092 v 1.410053 z m 4.57835,-0.22225 h 0.96308 v 0.22225 h -1.23966 v -2.237317 h -0.95567 V 69.93222 h 0.95567 v -0.790222 h 0.27658 v 0.790222 h 1.05939 v 0.232128 h -1.05939 z m 3.37079,-0.0099 h 0.77293 v 0.232128 h -1.83232 v -0.232128 h 0.78034 v -2.005189 h -0.75565 V 69.93222 h 1.00259 l 0.0321,0.525992 v 0.0074 c 0.10866,-0.167922 0.25765,-0.30868 0.44697,-0.422275 0.19097,-0.113595 0.40828,-0.170392 0.65193,-0.170392 0.10536,0 0.19591,0.0107 0.27164,0.0321 0.0757,0.01975 0.12923,0.03786 0.16051,0.05433 l -0.13335,0.242005 c -0.0247,-0.01646 -0.0691,-0.03292 -0.13335,-0.04939 -0.0642,-0.01646 -0.14651,-0.02469 -0.24694,-0.02469 -0.15804,0 -0.30621,0.03539 -0.4445,0.106186 -0.13664,0.07079 -0.25518,0.16463 -0.3556,0.281517 -0.0988,0.115241 -0.17121,0.238713 -0.21731,0.370417 z m 3.58563,0.286456 c -0.21896,0 -0.41569,-0.04445 -0.5902,-0.13335 -0.1745,-0.0889 -0.31279,-0.228013 -0.41487,-0.417337 -0.10042,-0.19097 -0.15063,-0.438738 -0.15063,-0.743303 0,-0.304565 0.051,-0.551509 0.1531,-0.740833 0.10208,-0.189324 0.23954,-0.327613 0.4124,-0.414867 0.17451,-0.0889 0.37124,-0.13335 0.5902,-0.13335 0.21731,0 0.41239,0.04445 0.58525,0.13335 0.17452,0.08725 0.31198,0.225543 0.4124,0.414867 0.10208,0.189324 0.15311,0.436268 0.15311,0.740833 0,0.304565 -0.051,0.552333 -0.15311,0.743303 -0.10042,0.189324 -0.23788,0.328436 -0.4124,0.417337 -0.17286,0.0889 -0.36794,0.13335 -0.58525,0.13335 z m 0,-0.239537 c 0.16792,0 0.31691,-0.03375 0.44697,-0.101247 0.13006,-0.06915 0.2313,-0.18027 0.30374,-0.333375 0.0741,-0.154752 0.11112,-0.361362 0.11112,-0.619831 0,-0.256822 -0.037,-0.461786 -0.11112,-0.614891 -0.0741,-0.153106 -0.17615,-0.263408 -0.30621,-0.330906 -0.13006,-0.06914 -0.27822,-0.103717 -0.4445,-0.103717 -0.16792,0 -0.31774,0.03457 -0.44944,0.103717 -0.13006,0.0675 -0.23213,0.1778 -0.30621,0.330906 -0.0741,0.153105 -0.11113,0.358069 -0.11113,0.614891 0,0.258469 0.037,0.465079 0.11113,0.619831 0.0741,0.154752 0.17615,0.265877 0.30621,0.333375 0.13006,0.0675 0.27987,0.101247 0.44944,0.101247 z m 2.44968,-2.284236 h 0.25435 l 0.0222,0.474133 c 0.0873,-0.149813 0.21073,-0.275754 0.37042,-0.377825 0.16134,-0.103717 0.35724,-0.155575 0.58772,-0.155575 0.32597,0 0.58526,0.111125 0.77788,0.333375 0.19262,0.220604 0.28892,0.542455 0.28892,0.965553 0,0.281517 -0.0477,0.51776 -0.14322,0.708731 -0.0955,0.19097 -0.22801,0.335021 -0.39758,0.432153 -0.16957,0.09548 -0.36466,0.143228 -0.58526,0.143228 -0.2239,0 -0.40911,-0.04363 -0.55563,-0.130881 -0.14652,-0.0889 -0.26011,-0.202494 -0.34078,-0.340783 v 1.405114 h -0.27905 z m 1.1804,0.180269 c -0.15127,0.0076 -0.28152,0.02716 -0.39018,0.08149 -0.107,0.05433 -0.19673,0.122648 -0.26917,0.204964 -0.0708,0.08067 -0.12593,0.162984 -0.16545,0.246945 -0.0379,0.08396 -0.0634,0.155574 -0.0765,0.214841 v 0.642056 c 0.0115,0.05927 0.0338,0.129234 0.0667,0.209903 0.0346,0.08067 0.0848,0.15969 0.15064,0.237066 0.0659,0.07573 0.14983,0.139113 0.25188,0.190148 0.10372,0.05103 0.23049,0.07655 0.3803,0.07655 0.27987,0 0.49718,-0.09384 0.65193,-0.281516 0.15476,-0.189324 0.23213,-0.443677 0.23213,-0.763059 0,-0.319381 -0.07,-0.57538 -0.2099,-0.767997 -0.13829,-0.194263 -0.34607,-0.305206 -0.6223,-0.291395 z m 2.54352,-0.180269 0.89641,2.276828 0.86677,-2.276828 h 0.30128 l -0.97791,2.469445 c -0.12182,0.32432 -0.26257,0.568795 -0.42227,0.733425 -0.15804,0.164629 -0.35148,0.246944 -0.58032,0.246944 -0.10042,0 -0.19179,-0.01729 -0.27411,-0.05186 -0.0823,-0.03293 -0.14651,-0.07326 -0.19261,-0.121003 l 0.12594,-0.204964 c 0.0411,0.04281 0.0897,0.07738 0.14569,0.103717 0.0576,0.02799 0.12593,0.04198 0.20497,0.04198 0.14982,0 0.2807,-0.06503 0.39264,-0.195086 0.1136,-0.128411 0.22061,-0.312796 0.32103,-0.553155 h -0.10125 l -1.01,-2.469445 z m 2.86949,2.842331 h 2.91641 v 0.232128 h -2.91641 z m 3.92641,-2.842331 h 0.25435 l 0.0222,0.474133 c 0.0873,-0.149813 0.21073,-0.275754 0.37042,-0.377825 0.16134,-0.103717 0.35724,-0.155575 0.58772,-0.155575 0.32597,0 0.58526,0.111125 0.77788,0.333375 0.19262,0.220604 0.28892,0.542455 0.28892,0.965553 0,0.281517 -0.0477,0.51776 -0.14322,0.708731 -0.0955,0.19097 -0.22801,0.335021 -0.39758,0.432153 -0.16957,0.09548 -0.36466,0.143228 -0.58526,0.143228 -0.2239,0 -0.40911,-0.04363 -0.55563,-0.130881 -0.14652,-0.0889 -0.26011,-0.202494 -0.34078,-0.340783 v 1.405114 h -0.27905 z m 1.1804,0.180269 c -0.15127,0.0076 -0.28152,0.02716 -0.39018,0.08149 -0.107,0.05433 -0.19672,0.122648 -0.26916,0.204964 -0.0708,0.08067 -0.12594,0.162984 -0.16546,0.246945 -0.0379,0.08396 -0.0634,0.155574 -0.0765,0.214841 v 0.642056 c 0.0115,0.05927 0.0338,0.129234 0.0667,0.209903 0.0346,0.08067 0.0848,0.15969 0.15064,0.237066 0.0659,0.07573 0.14983,0.139113 0.25188,0.190148 0.10372,0.05103 0.23049,0.07655 0.3803,0.07655 0.27987,0 0.49718,-0.09384 0.65193,-0.281516 0.15476,-0.189324 0.23213,-0.443677 0.23213,-0.763059 0,-0.319381 -0.07,-0.57538 -0.2099,-0.767997 -0.13829,-0.194263 -0.34607,-0.305206 -0.6223,-0.291395 z m 3.38313,2.343504 c -0.21895,0 -0.41568,-0.04445 -0.5902,-0.13335 -0.1745,-0.0889 -0.31279,-0.228013 -0.41486,-0.417337 -0.10042,-0.19097 -0.15064,-0.438738 -0.15064,-0.743303 0,-0.304565 0.051,-0.551509 0.15311,-0.740833 0.10207,-0.189324 0.23953,-0.327613 0.41239,-0.414867 0.17452,-0.0889 0.37125,-0.13335 0.5902,-0.13335 0.21732,0 0.4124,0.04445 0.58526,0.13335 0.17451,0.08725 0.31198,0.225543 0.4124,0.414867 0.10207,0.189324 0.1531,0.436268 0.1531,0.740833 0,0.304565 -0.051,0.552333 -0.1531,0.743303 -0.10042,0.189324 -0.23789,0.328436 -0.4124,0.417337 -0.17286,0.0889 -0.36794,0.13335 -0.58526,0.13335 z m 0,-0.239537 c 0.16792,0 0.31691,-0.03375 0.44697,-0.101247 0.13006,-0.06915 0.23131,-0.18027 0.30374,-0.333375 0.0741,-0.154752 0.11113,-0.361362 0.11113,-0.619831 0,-0.256822 -0.037,-0.461786 -0.11113,-0.614891 -0.0741,-0.153106 -0.17615,-0.263408 -0.30621,-0.330906 -0.13005,-0.06914 -0.27822,-0.103717 -0.4445,-0.103717 -0.16792,0 -0.31773,0.03457 -0.44944,0.103717 -0.13005,0.0675 -0.23212,0.1778 -0.30621,0.330906 -0.0741,0.153105 -0.11112,0.358069 -0.11112,0.614891 0,0.258469 0.037,0.465079 0.11112,0.619831 0.0741,0.154752 0.17616,0.265877 0.30621,0.333375 0.13006,0.0675 0.27988,0.101247 0.44944,0.101247 z m 3.50661,0.239537 c -0.21896,0 -0.41569,-0.04445 -0.5902,-0.13335 -0.1745,-0.0889 -0.31279,-0.228013 -0.41487,-0.417337 -0.10042,-0.19097 -0.15063,-0.438738 -0.15063,-0.743303 0,-0.304565 0.051,-0.551509 0.1531,-0.740833 0.10208,-0.189324 0.23954,-0.327613 0.4124,-0.414867 0.17451,-0.0889 0.37124,-0.13335 0.5902,-0.13335 0.21732,0 0.4124,0.04445 0.58526,0.13335 0.17451,0.08725 0.31197,0.225543 0.41239,0.414867 0.10208,0.189324 0.15311,0.436268 0.15311,0.740833 0,0.304565 -0.051,0.552333 -0.15311,0.743303 -0.10042,0.189324 -0.23788,0.328436 -0.41239,0.417337 -0.17286,0.0889 -0.36794,0.13335 -0.58526,0.13335 z m 0,-0.239537 c 0.16792,0 0.31691,-0.03375 0.44697,-0.101247 0.13006,-0.06915 0.2313,-0.18027 0.30374,-0.333375 0.0741,-0.154752 0.11112,-0.361362 0.11112,-0.619831 0,-0.256822 -0.037,-0.461786 -0.11112,-0.614891 -0.0741,-0.153106 -0.17615,-0.263408 -0.30621,-0.330906 -0.13006,-0.06914 -0.27822,-0.103717 -0.4445,-0.103717 -0.16792,0 -0.31773,0.03457 -0.44944,0.103717 -0.13006,0.0675 -0.23213,0.1778 -0.30621,0.330906 -0.0741,0.153105 -0.11113,0.358069 -0.11113,0.614891 0,0.258469 0.037,0.465079 0.11113,0.619831 0.0741,0.154752 0.17615,0.265877 0.30621,0.333375 0.13006,0.0675 0.27988,0.101247 0.44944,0.101247 z m 2.63062,-0.04692 h 1.04457 v 0.232128 h -1.32362 V 68.682681 H 149.057 v -0.232128 h 1.18287 z"
       id="text8"
       inkscape:label="title "
       aria-label="entropy_pool"
       sodipodi:nodetypes="cccsccscsscccccsccccssccccsscccccssccscscscccccccccccccccccccccccccccccccscccssccccsscsscsccsccssccsscscsssssccccscsscscccccsccccccccscscssccccccsccccsccccccccccccccscsscscccccsccccccccscscsssscsscsccsccssccsscscssssssscsscsccsccssccsscscsssssccccccccc" /><text
       xml:space="preserve"
       style="font-style:normal;font-variant:normal;font-weight:200;font-stretch:semi-expanded;font-size:4.93889px;font-family:'League Mono';-inkscape-font-specification:'League Mono, Ultra-Light Semi-Expanded';font-variant-ligatures:normal;font-variant-caps:normal;font-variant-numeric:normal;font-variant-east-asian:normal;writing-mode:lr-tb;direction:ltr;display:none;fill:#ffffff;stroke-width:0.499999;stroke-linecap:round;stroke-linejoin:round"
       x="110.01019"
       y="72.401665"
       id="text25"
       inkscape:label="title "><tspan
         sodipodi:role="line"
         id="tspan25"
         style="font-style:normal;font-variant:normal;font-weight:200;font-stretch:semi-expanded;font-size:4.93889px;font-family:'League Mono';-inkscape-font-specification:'League Mono, Ultra-Light Semi-Expanded';font-variant-ligatures:normal;font-variant-caps:normal;font-variant-numeric:normal;font-variant-east-asian:normal;stroke-width:0.5"
         x="110.01019"
         y="72.401665">entropy_pool</tspan></text></g><g
     id="g26"
     inkscape:label="branding - league mono ultrabold condensed modified baseline and b d and i+kern"
     transform="matrix(1.3333333,0,0,1.3333333,-52.18351,-42.044856)"
     style="stroke-width:0.75"><path
       style="font-weight:800;font-stretch:condensed;font-size:3.52778px;font-family:'League Mono';-inkscape-font-specification:'League Mono, Ultra-Bold Condensed';display:inline;fill:#f0f6fc;fill-opacity:0.47999999;stroke-width:0.375;stroke-linecap:round;stroke-linejoin:round"
       d="m 141.75789,127.78377 v -2.9503 l 0.64743,-5e-4 v 1.23352 c 0.0497,-0.057 0.10971,-0.10124 0.18005,-0.13275 0.0703,-0.0327 0.15094,-0.0491 0.24186,-0.0491 0.44375,0 0.66562,0.31523 0.66562,0.94569 0,0.3128 -0.057,0.54983 -0.17095,0.71108 -0.11397,0.16124 -0.28552,0.24234 -0.51467,0.24234 z m 0.85657,-1.40811 c -0.0606,0 -0.10912,0.0285 -0.14549,0.0855 -0.0352,0.0558 -0.0564,0.12546 -0.0636,0.20913 v 0.30008 c 0.006,0.0836 0.025,0.15821 0.0564,0.22368 0.0327,0.0655 0.083,0.0982 0.15094,0.0982 0.0764,0 0.12852,-0.0425 0.1564,-0.1273 0.0291,-0.0849 0.0436,-0.19641 0.0436,-0.33462 0,-0.137 -0.0139,-0.24673 -0.0419,-0.32918 -0.0279,-0.0836 -0.08,-0.12548 -0.1564,-0.12548 z m 1.58907,-0.73488 c -0.11154,0 -0.20671,-0.0389 -0.28552,-0.11649 -0.0776,-0.0788 -0.11638,-0.17459 -0.11638,-0.28734 0,-0.11275 0.0388,-0.20793 0.11638,-0.28552 0.0788,-0.0788 0.17398,-0.11794 0.28552,-0.11794 0.11276,0 0.20794,0.0391 0.28553,0.11794 0.0788,0.0776 0.11821,0.17277 0.11821,0.28552 0,0.11275 -0.0394,0.20854 -0.11821,0.28734 -0.0776,0.0776 -0.17277,0.11649 -0.28553,0.11649 z m 0.32234,1.6351 v 0.50789 h -0.64969 l -1.8e-4,-1.39174 v -0.46738 h 0.64943 z m 1.58397,0.50789 -0.42374,-0.76796 h -0.0964 v 0.76796 h -0.6456 v -2.9503 h 0.6456 v 1.75315 h 0.10187 l 0.36372,-0.66197 h 0.68743 l -0.56559,0.86747 0.62015,0.99165 z m 2.55152,-0.42423 c -0.0279,0.0642 -0.0758,0.12912 -0.14367,0.19458 -0.0667,0.0655 -0.15457,0.12006 -0.2637,0.16368 -0.10911,0.0436 -0.24006,0.0655 -0.39283,0.0655 -0.16852,0 -0.32249,-0.0364 -0.46192,-0.10912 -0.13822,-0.0739 -0.24855,-0.18186 -0.33099,-0.32371 -0.0825,-0.14186 -0.12367,-0.31463 -0.12367,-0.51831 0,-0.20489 0.0412,-0.37766 0.12367,-0.5183 0.0825,-0.14185 0.19216,-0.24915 0.32917,-0.3219 0.137,-0.0739 0.28855,-0.11093 0.45466,-0.11093 0.16852,0 0.31886,0.0352 0.45101,0.10548 0.13215,0.0703 0.23641,0.18186 0.3128,0.33463 0.0764,0.15276 0.11457,0.35341 0.11457,0.60195 h -1.13663 c 0.006,0.13458 0.0323,0.23097 0.0782,0.28916 0.0461,0.0583 0.10909,0.0873 0.18913,0.0873 0.0594,0 0.11334,-0.0194 0.16186,-0.0581 0.0486,-0.04 0.0825,-0.0909 0.10187,-0.15277 z m -0.79473,-1.01115 c -0.0606,0 -0.11216,0.0188 -0.15459,0.0564 -0.0424,0.0364 -0.0739,0.0945 -0.0945,0.17459 h 0.48012 c -10e-4,-0.0279 -0.0103,-0.06 -0.0255,-0.0964 -0.0145,-0.0364 -0.0389,-0.0678 -0.0728,-0.0945 -0.0327,-0.0267 -0.0769,-0.04 -0.13276,-0.04 z m 2.05685,1.43488 c -0.1952,0 -0.36736,-0.0291 -0.51649,-0.0873 -0.14791,-0.0594 -0.25885,-0.14123 -0.33281,-0.24552 l 0.50558,-0.32007 c 0.0267,0.0558 0.0709,0.10001 0.13275,0.13275 0.063,0.0327 0.13639,0.0491 0.22006,0.0491 0.16004,0 0.24006,-0.0328 0.24006,-0.0983 0,-0.0364 -0.0303,-0.0673 -0.0909,-0.0928 -0.0594,-0.0267 -0.16001,-0.0558 -0.30188,-0.0873 -0.18914,-0.0485 -0.34312,-0.11877 -0.46193,-0.21096 -0.11761,-0.0922 -0.17641,-0.22187 -0.17641,-0.38918 0,-0.12245 0.0376,-0.2243 0.11275,-0.30553 0.0764,-0.0825 0.17702,-0.14427 0.3019,-0.18549 0.12608,-0.0412 0.26308,-0.0619 0.41101,-0.0619 0.21217,0 0.38675,0.0328 0.52376,0.0982 0.137,0.0642 0.22793,0.14186 0.27279,0.23278 l -0.48375,0.30371 c -0.0145,-0.0436 -0.0515,-0.0831 -0.11094,-0.11821 -0.0594,-0.0364 -0.12547,-0.0545 -0.19822,-0.0545 -0.0716,0 -0.12731,0.009 -0.16732,0.0291 -0.04,0.0182 -0.06,0.0418 -0.06,0.0709 0,0.0327 0.0219,0.0581 0.0655,0.0764 0.0448,0.0183 0.12431,0.0389 0.23824,0.0619 0.0703,0.0158 0.14732,0.0382 0.23096,0.0673 0.0836,0.028 0.16307,0.0649 0.23824,0.11093 0.0764,0.0461 0.13822,0.10364 0.18551,0.17277 0.0486,0.0691 0.0728,0.15277 0.0728,0.25097 0,0.13337 -0.0412,0.24491 -0.12367,0.33463 -0.0813,0.0885 -0.18671,0.15518 -0.31645,0.20004 -0.12972,0.0436 -0.26672,0.0655 -0.411,0.0655 z m 1.20211,5e-4 v -2.9503 h 0.64014 v 1.2603 c 0.0679,-0.0655 0.14369,-0.11642 0.22733,-0.15276 0.0849,-0.0376 0.17156,-0.0564 0.26007,-0.0564 0.17702,0 0.31947,0.0564 0.42737,0.16913 0.10911,0.11276 0.16368,0.29766 0.16368,0.55468 v 1.17533 h -0.64743 v -1.08437 c 0,-0.103 -0.0176,-0.18247 -0.0528,-0.23824 -0.0339,-0.057 -0.0825,-0.0855 -0.14548,-0.0855 -0.0739,0 -0.13093,0.0364 -0.17095,0.10912 -0.0388,0.0727 -0.0594,0.15701 -0.0619,0.25279 v 1.0462 z m 3.75544,-0.42423 c -0.0279,0.0642 -0.0758,0.12912 -0.14367,0.19458 -0.0667,0.0655 -0.15457,0.12006 -0.2637,0.16368 -0.10911,0.0436 -0.24005,0.0655 -0.39282,0.0655 -0.16853,0 -0.3225,-0.0364 -0.46193,-0.10912 -0.13822,-0.0739 -0.24855,-0.18186 -0.33099,-0.32371 -0.0825,-0.14186 -0.12367,-0.31463 -0.12367,-0.51831 0,-0.20489 0.0412,-0.37766 0.12367,-0.5183 0.0825,-0.14185 0.19216,-0.24915 0.32916,-0.3219 0.13701,-0.0739 0.28856,-0.11093 0.45467,-0.11093 0.16852,0 0.31886,0.0352 0.45101,0.10548 0.13215,0.0703 0.23641,0.18186 0.3128,0.33463 0.0764,0.15276 0.11457,0.35341 0.11457,0.60195 h -1.13663 c 0.006,0.13458 0.0323,0.23097 0.0782,0.28916 0.0461,0.0583 0.1091,0.0873 0.18914,0.0873 0.0594,0 0.11334,-0.0194 0.16185,-0.0581 0.0486,-0.04 0.0825,-0.0909 0.10187,-0.15277 z m -0.79474,-1.01115 c -0.0606,0 -0.11215,0.0188 -0.15458,0.0564 -0.0424,0.0364 -0.0739,0.0945 -0.0945,0.17459 h 0.48012 c -0.001,-0.0279 -0.0103,-0.06 -0.0255,-0.0964 -0.0145,-0.0364 -0.0389,-0.0678 -0.0728,-0.0945 -0.0327,-0.0267 -0.0769,-0.04 -0.13276,-0.04 z m 1.86227,1.43488 c -0.22793,0 -0.39889,-0.0806 -0.51286,-0.24187 -0.11396,-0.16125 -0.17094,-0.39828 -0.17094,-0.71108 0,-0.63046 0.22187,-0.94569 0.66561,-0.94569 0.0934,0 0.17458,0.017 0.24369,0.0509 0.0703,0.0327 0.12974,0.0788 0.17823,0.13822 v -1.2403 h 0.6456 v 2.9503 c -0.41277,0 -0.66955,-5.3e-4 -1.04937,-5.3e-4 z m -0.005,-0.95295 c 0,0.13821 0.0133,0.24976 0.04,0.33462 0.0267,0.0848 0.0806,0.1273 0.16187,0.1273 0.0679,0 0.11762,-0.0327 0.14912,-0.0981 0.0327,-0.0655 0.0521,-0.14007 0.0582,-0.22368 v -0.30008 c -0.007,-0.0836 -0.0291,-0.15337 -0.0655,-0.20914 -0.0351,-0.057 -0.0831,-0.0855 -0.14366,-0.0855 -0.08,0 -0.13337,0.0419 -0.16005,0.12549 -0.0267,0.0825 -0.04,0.19217 -0.04,0.32917 z"
       id="text4-4"
       inkscape:label="label 0.333 from right 0.333/2 from bottom"
       aria-label="bikeshed"
       sodipodi:nodetypes="cccccssssccccccscscccscssscssscccccccccccccccccccccccsscssccsssccssccccccccccccccccsscccsccsccccscscccccscccccccccscsccscsccccccsscssccsssccssccccccccccccsssccccccccssccccsccc" /><text
       xml:space="preserve"
       style="font-style:normal;font-variant:normal;font-weight:800;font-stretch:condensed;font-size:3.52778px;font-family:'League Mono';-inkscape-font-specification:'League Mono, Ultra-Bold Condensed';font-variant-ligatures:normal;font-variant-caps:normal;font-variant-numeric:normal;font-variant-east-asian:normal;writing-mode:lr-tb;direction:ltr;display:none;fill:#f0f6fc;fill-opacity:0.41999999;stroke-width:0.374999;stroke-linecap:round;stroke-linejoin:round"
       x="141.10172"
       y="127.74447"
       id="text27"
       inkscape:label="label"><tspan
         sodipodi:role="line"
         id="tspan27"
         style="font-style:normal;font-variant:normal;font-weight:800;font-stretch:condensed;font-size:3.52778px;font-family:'League Mono';-inkscape-font-specification:'League Mono, Ultra-Bold Condensed';font-variant-ligatures:normal;font-variant-caps:normal;font-variant-numeric:normal;font-variant-east-asian:normal;fill:#f0f6fc;fill-opacity:0.41999999;stroke-width:0.375"
         x="0"
         y="0">bikeshed</tspan></text></g><g
     inkscape:groupmode="layer"
     id="layer1"
     inkscape:label="components"
     style="display:none"><circle
       style="display:inline;fill:#0000ff;fill-opacity:1;stroke:none;stroke-width:0.564999;stroke-linecap:round;stroke-linejoin:round;stroke-dasharray:none;stroke-opacity:1"
       id="circle43"
       cx="144.74026"
       cy="113.115"
       r="4"
       inkscape:label="cv" /><circle
       style="display:inline;fill:#ff0000;fill-opacity:1;stroke:none;stroke-width:0.423749;stroke-linecap:round;stroke-linejoin:round;stroke-dasharray:none;stroke-opacity:1"
       id="circle66-0"
       cx="144.74017"
       cy="94.499992"
       r="3"
       inkscape:label="scale" /><circle
       style="display:inline;fill:#0000ff;fill-opacity:1;stroke:none;stroke-width:0.564999;stroke-linecap:round;stroke-linejoin:round;stroke-dasharray:none;stroke-opacity:1"
       id="circle44"
       cx="133.7402"
       cy="113.115"
       r="4"
       inkscape:label="gate" /><circle
       style="display:inline;fill:#ff00ff;fill-opacity:1;stroke:none;stroke-width:0.211875;stroke-linecap:round;stroke-linejoin:round;stroke-dasharray:none;stroke-opacity:1"
       id="circle49-8"
       cx="133.73999"
       cy="94.5"
       inkscape:label="gate"
       r="1.5" /><circle
       style="display:inline;fill:#0000ff;fill-opacity:1;stroke:none;stroke-width:0.564999;stroke-linecap:round;stroke-linejoin:round;stroke-dasharray:none;stroke-opacity:1"
       id="circle46"
       cx="122.74001"
       cy="113.115"
       r="4"
       inkscape:label="trigger" /><circle
       style="display:inline;fill:#ff00ff;fill-opacity:1;stroke:none;stroke-width:0.211875;stroke-linecap:round;stroke-linejoin:round;stroke-dasharray:none;stroke-opacity:1"
       id="circle49-8-0"
       cx="122.74001"
       cy="94.499992"
       inkscape:label="trigger"
       r="1.5" /><circle
       style="display:inline;fill:#0000ff;fill-opacity:1;stroke:none;stroke-width:0.564999;stroke-linecap:round;stroke-linejoin:round;stroke-dasharray:none;stroke-opacity:1"
       id="circle14"
       cx="111.74001"
       cy="113.115"
       r="4"
       inkscape:label="eos" /><circle
       style="display:inline;fill:#ff00ff;fill-opacity:1;stroke:none;stroke-width:0.211875;stroke-linecap:round;stroke-linejoin:round;stroke-dasharray:none;stroke-opacity:1"
       id="circle15"
       cx="111.74001"
       cy="94.499992"
       inkscape:label="eos"
       r="1.5" /><circle
       style="display:inline;fill:#00ff00;fill-opacity:1;stroke:none;stroke-width:0.564999;stroke-linecap:round;stroke-linejoin:round;stroke-dasharray:none;stroke-opacity:1"
       id="circle65"
       cx="89.740005"
       cy="113.115"
       r="4"
       inkscape:label="offset" /><circle
       style="display:inline;fill:#ff0000;fill-opacity:1;stroke:none;stroke-width:0.423749;stroke-linecap:round;stroke-linejoin:round;stroke-dasharray:none;stroke-opacity:1"
       id="circle66"
       cx="89.740005"
       cy="94.499992"
       r="3"
       inkscape:label="offset_cv" /><circle
       style="display:inline;fill:#ff0000;fill-opacity:1;stroke:none;stroke-width:0.423748;stroke-linecap:round;stroke-linejoin:round;stroke-dasharray:none;stroke-opacity:1"
       id="circle66-4-3-8"
       cx="94.740105"
       cy="82"
       r="5"
       inkscape:label="offset" /><circle
       style="display:inline;fill:#00ff00;fill-opacity:1;stroke:none;stroke-width:0.564999;stroke-linecap:round;stroke-linejoin:round;stroke-dasharray:none;stroke-opacity:1"
       id="circle38"
       cx="78.739998"
       cy="113.115"
       r="4"
       inkscape:label="filter" /><circle
       style="display:inline;fill:#ff0000;fill-opacity:1;stroke:none;stroke-width:0.423749;stroke-linecap:round;stroke-linejoin:round;stroke-dasharray:none;stroke-opacity:1"
       id="circle29"
       cx="78.739998"
       cy="94.499992"
       r="3"
       inkscape:label="filter_cv" /><circle
       style="display:inline;fill:#ff0000;fill-opacity:1;stroke:none;stroke-width:0.423748;stroke-linecap:round;stroke-linejoin:round;stroke-dasharray:none;stroke-opacity:1"
       id="circle66-4-3"
       cx="78.740112"
       cy="82"
       r="5"
       inkscape:label="filter" /><circle
       style="display:inline;fill:#00ff00;fill-opacity:1;stroke:none;stroke-width:0.564999;stroke-linecap:round;stroke-linejoin:round;stroke-dasharray:none;stroke-opacity:1"
       id="circle37"
       cx="67.739998"
       cy="113.115"
       r="4"
       inkscape:label="start" /><circle
       style="display:inline;fill:#ff0000;fill-opacity:1;stroke:none;stroke-width:0.423749;stroke-linecap:round;stroke-linejoin:round;stroke-dasharray:none;stroke-opacity:1"
       id="circle28"
       cx="67.739998"
       cy="94.499992"
       r="3"
       inkscape:label="start_cv" /><circle
       style="display:inline;fill:#ff0000;fill-opacity:1;stroke:none;stroke-width:0.423748;stroke-linecap:round;stroke-linejoin:round;stroke-dasharray:none;stroke-opacity:1"
       id="circle66-4"
       cx="62.739899"
       cy="82"
       r="5"
       inkscape:label="start" /><circle
       style="display:inline;fill:#00ff00;fill-opacity:1;stroke:none;stroke-width:0.564999;stroke-linecap:round;stroke-linejoin:round;stroke-dasharray:none;stroke-opacity:1"
       id="circle36"
       cx="45.739998"
       cy="113.115"
       r="4"
       inkscape:label="randomize" /><circle
       style="display:inline;fill:#ff0000;fill-opacity:1;stroke:none;stroke-width:0.423749;stroke-linecap:round;stroke-linejoin:round;stroke-dasharray:none;stroke-opacity:1"
       id="circle24"
       cx="45.739998"
       cy="94.499992"
       r="3"
       inkscape:label="randomize" /><circle
       style="display:inline;fill:#00ff00;fill-opacity:1;stroke:none;stroke-width:0.564999;stroke-linecap:round;stroke-linejoin:round;stroke-dasharray:none;stroke-opacity:1"
       id="circle35"
       cx="34.739998"
       cy="113.115"
       r="4"
       inkscape:label="reset" /><circle
       style="fill:#ff0000;fill-opacity:1;stroke:none;stroke-width:0.423749;stroke-linecap:round;stroke-linejoin:round;stroke-dasharray:none;stroke-opacity:1"
       id="circle23"
       cx="34.739998"
       cy="94.499992"
       r="3"
       inkscape:label="reset" /><circle
       style="fill:#00ff00;fill-opacity:1;stroke:none;stroke-width:0.564999;stroke-linecap:round;stroke-linejoin:round;stroke-dasharray:none;stroke-opacity:1"
       id="circle34"
       cx="23.739998"
       cy="113.115"
       r="4"
       inkscape:label="run" /><circle
       style="display:inline;fill:#ff0000;fill-opacity:1;stroke:none;stroke-width:0.423749;stroke-linecap:round;stroke-linejoin:round;stroke-dasharray:none;stroke-opacity:1"
       id="path23"
       cx="23.739998"
       cy="94.499992"
       inkscape:label="run"
       r="3" /><circle
       style="fill:#00ff00;fill-opacity:1;stroke:none;stroke-width:0.564999;stroke-linecap:round;stroke-linejoin:round;stroke-dasharray:none;stroke-opacity:1"
       id="circle47"
       cx="12.739998"
       cy="113.115"
       r="4"
       inkscape:label="clock" /><circle
       style="fill:#ff00ff;fill-opacity:1;stroke:none;stroke-width:0.211875;stroke-linecap:round;stroke-linejoin:round;stroke-dasharray:none;stroke-opacity:1"
       id="circle49"
       cx="12.739998"
       cy="94.499992"
       inkscape:label="clock"
       r="1.5" /><rect
       style="display:inline;fill:#ffff00;fill-opacity:1;stroke:none;stroke-width:0.563311;stroke-linecap:round;stroke-linejoin:round;stroke-dasharray:none;stroke-opacity:1"
       id="rect775"
       width="145"
       height="61"
       x="6.239995"
       y="6.2399998"
       rx="4.7855897"
       ry="0.089229703"
       inkscape:label="contributions" /></g></svg>
