<?xml version="1.0" encoding="UTF-8" standalone="no"?>
<!-- Generator: Adobe Illustrator 25.2.3, SVG Export Plug-In . SVG Version: 6.00 Build 0)  -->

<svg
   version="1.0"
   id="svg111794"
   x="0px"
   y="0px"
   width="6mm"
   height="5.9998603mm"
   viewBox="0 0 22.677165 22.676636"
   enable-background="new 0 0 17.85552 17.85938"
   xml:space="preserve"
   sodipodi:docname="knob_sm_fg.svg"
   inkscape:version="1.4.3 (0d15f75, 2025-12-25)"
   xmlns:inkscape="http://www.inkscape.org/namespaces/inkscape"
   xmlns:sodipodi="http://sodipodi.sourceforge.net/DTD/sodipodi-0.dtd"
   xmlns:xlink="http://www.w3.org/1999/xlink"
   xmlns="http://www.w3.org/2000/svg"
   xmlns:svg="http://www.w3.org/2000/svg"><defs
   id="defs6"><linearGradient
     id="linearGradient10"
     inkscape:collect="always"><stop
       style="stop-color:#f0f6fc;stop-opacity:0.09666938;"
       offset="0"
       id="stop9" /><stop
       style="stop-color:#f0f6fc;stop-opacity:0;"
       offset="1"
       id="stop10" /></linearGradient><linearGradient
     id="linearGradient41"
     inkscape:collect="always"><stop
       style="stop-color:#f0f6fc;stop-opacity:1;"
       offset="0"
       id="stop42" /><stop
       style="stop-color:#000000;stop-opacity:0;"
       offset="0.5"
       id="stop44" /><stop
       style="stop-color:#f0f6fc;stop-opacity:0.00487409;"
       offset="1"
       id="stop43" /></linearGradient><linearGradient
     id="linearGradient33"
     inkscape:collect="always"><stop
       style="stop-color:#f0f6fc;stop-opacity:0.41622003;"
       offset="0"
       id="stop33" /><stop
       style="stop-color:#f0f6fc;stop-opacity:0.29975629;"
       offset="0.38712013"
       id="stop34" /></linearGradient><linearGradient
     id="linearGradient32"
     inkscape:collect="always"><stop
       style="stop-color:#f0f6fc;stop-opacity:0;"
       offset="0"
       id="stop31" /><stop
       style="stop-color:#0f0309;stop-opacity:0.04549147;"
       offset="1"
       id="stop32" /></linearGradient><linearGradient
     id="linearGradient6"
     inkscape:collect="always"><stop
       style="stop-color:#f0f6fc;stop-opacity:0.58407801;"
       offset="0"
       id="stop6" /><stop
       style="stop-color:#787b7e;stop-opacity:0.47603574;"
       offset="1"
       id="stop7" /></linearGradient><linearGradient
     inkscape:collect="always"
     xlink:href="#linearGradient6"
     id="linearGradient7"
     x1="8.9280005"
     y1="1.0016901"
     x2="8.9280005"
     y2="16.857691"
     gradientUnits="userSpaceOnUse"
     gradientTransform="matrix(1.416774,0,0,1.4167744,0.57938643,0.57726432)" /><linearGradient
     id="linearGradient13"
     gradientUnits="userSpaceOnUse"
     x1="183.81821"
     y1="5065.8359"
     x2="200.01283"
     y2="5065.8359"
     gradientTransform="matrix(3.688038e-8,1,1,-3.688038e-8,-5056.9082,-182.98755)">
	<stop
   offset="0"
   style="stop-color:#FFFBFD"
   id="stop3-3" />
	<stop
   offset="1"
   style="stop-color:#2E2E2E"
   id="stop4-2" />
</linearGradient><linearGradient
     id="linearGradient14"
     gradientUnits="userSpaceOnUse"
     x1="-2317.6343"
     y1="-3827.8528"
     x2="-2301.4397"
     y2="-3827.8528"
     gradientTransform="rotate(90,-3068.6949,-750.23011)">
	<stop
   offset="0"
   style="stop-color:#FFFBFD"
   id="stop1-2" />
	<stop
   offset="1"
   style="stop-color:#000000"
   id="stop2-1" />
</linearGradient><linearGradient
     inkscape:collect="always"
     xlink:href="#linearGradient28"
     id="linearGradient29"
     x1="-3.7721314"
     y1="-56.582401"
     x2="-3.7721314"
     y2="-32.961308"
     gradientUnits="userSpaceOnUse"
     gradientTransform="matrix(0.95103012,0,0,0.95103012,16.815757,55.808002)" /><linearGradient
     id="linearGradient28"
     inkscape:collect="always"><stop
       style="stop-color:#f0f6fc;stop-opacity:0.58431375;"
       offset="0.31041968"
       id="stop28" /><stop
       style="stop-color:#f0f6fc;stop-opacity:0.07717303;"
       offset="1"
       id="stop29" /></linearGradient><radialGradient
     inkscape:collect="always"
     xlink:href="#linearGradient32"
     id="radialGradient31"
     cx="13.228346"
     cy="13.228621"
     fx="13.228346"
     fy="13.228621"
     r="11.232185"
     gradientUnits="userSpaceOnUse" /><linearGradient
     inkscape:collect="always"
     xlink:href="#linearGradient33"
     id="linearGradient34"
     x1="13.228347"
     y1="20.31879"
     x2="13.228347"
     y2="6.1384497"
     gradientUnits="userSpaceOnUse" /><radialGradient
     inkscape:collect="always"
     xlink:href="#linearGradient41"
     id="radialGradient43"
     cx="11.822825"
     cy="11.810862"
     fx="11.822825"
     fy="11.810862"
     r="7.0898442"
     gradientUnits="userSpaceOnUse" /><linearGradient
     inkscape:collect="always"
     xlink:href="#linearGradient10"
     id="linearGradient9"
     gradientUnits="userSpaceOnUse"
     gradientTransform="matrix(1.416774,0,0,1.4167744,0.57938618,0.57726477)"
     x1="8.9280081"
     y1="1.0016862"
     x2="8.9280081"
     y2="16.857697" /></defs><sodipodi:namedview
   id="namedview6"
   pagecolor="#ffffff"
   bordercolor="#000000"
   borderopacity="0.25"
   inkscape:showpageshadow="2"
   inkscape:pageopacity="0.0"
   inkscape:pagecheckerboard="0"
   inkscape:deskcolor="#d1d1d1"
   inkscape:zoom="64"
   inkscape:cx="7.53125"
   inkscape:cy="10.140625"
   inkscape:window-width="3840"
   inkscape:window-height="2054"
   inkscape:window-x="-11"
   inkscape:window-y="3"
   inkscape:window-maximized="1"
   inkscape:current-layer="svg111794"
   inkscape:document-units="mm"
   showguides="false" />

<linearGradient
   id="SVGID_1_"
   gradientUnits="userSpaceOnUse"
   x1="-2317.6343"
   y1="-3827.8528"
   x2="-2301.4397"
   y2="-3827.8528"
   gradientTransform="rotate(90,-3076.8654,-762.86873)">
	<stop
   offset="0"
   style="stop-color:#FFFBFD"
   id="stop1" />
	<stop
   offset="1"
   style="stop-color:#000000"
   id="stop2" />
</linearGradient>

<linearGradient
   id="SVGID_2_"
   gradientUnits="userSpaceOnUse"
   x1="183.81821"
   y1="5065.8359"
   x2="200.01283"
   y2="5065.8359"
   gradientTransform="matrix(3.688038e-8,1,1,-3.688038e-8,-5077.7173,-187.45569)">
	<stop
   offset="0"
   style="stop-color:#FFFBFD"
   id="stop3" />
	<stop
   offset="1"
   style="stop-color:#2E2E2E"
   id="stop4" />
</linearGradient>



<g
   id="g26"
   inkscape:label="bg"
   style="display:none;stroke-width:1.04167"
   transform="matrix(0.96000002,0,0,0.96000002,-1.3606302,-1.3608939)"><ellipse
     fill="#0a0a0a"
     cx="13.228346"
     cy="13.228346"
     id="circle1"
     rx="11.811023"
     ry="11.810748"
     style="display:inline;fill:#0f0903;fill-opacity:1;stroke-width:1.04166"
     inkscape:label="gap" /><ellipse
     fill="#0a0a0a"
     cx="13.228345"
     cy="13.228621"
     id="ellipse6"
     rx="11.232184"
     ry="11.231923"
     style="display:inline;fill:url(#linearGradient7);stroke-width:1.04165"
     inkscape:label="subsurface" /><ellipse
     fill="#0a0a0a"
     cx="13.228347"
     cy="13.228621"
     id="ellipse7"
     rx="7.0901709"
     ry="7.0900044"
     style="display:inline;fill:url(#linearGradient34);fill-opacity:0.41622;stroke-width:1.04166"
     inkscape:label="surface" /><path
     id="path29"
     style="display:inline;fill:url(#linearGradient29);stroke-width:1.04166"
     inkscape:label="linear bezel"
     d="M 13.228346,1.9964361 A 11.232639,11.232377 0 0 0 1.9961612,13.22862 11.232639,11.232377 0 0 0 13.228346,24.460805 11.232639,11.232377 0 0 0 24.460531,13.22862 11.232639,11.232377 0 0 0 13.228346,1.9964361 Z m 0,4.1421809 A 7.0907307,7.0905648 0 0 1 20.318349,13.22862 7.0907307,7.0905648 0 0 1 13.228346,20.318624 7.0907307,7.0905648 0 0 1 6.1383431,13.22862 7.0907307,7.0905648 0 0 1 13.228346,6.138617 Z" /><path
     id="path31"
     style="display:inline;fill:url(#radialGradient31);stroke-width:1.04166"
     inkscape:label="radial bezel"
     d="M 13.228346,1.9964361 A 11.232639,11.232377 0 0 0 1.9961612,13.22862 11.232639,11.232377 0 0 0 13.228346,24.460805 11.232639,11.232377 0 0 0 24.460531,13.22862 11.232639,11.232377 0 0 0 13.228346,1.9964361 Z m 0,4.1421809 A 7.0907307,7.0905648 0 0 1 20.318349,13.22862 7.0907307,7.0905648 0 0 1 13.228346,20.318624 7.0907307,7.0905648 0 0 1 6.1383431,13.22862 7.0907307,7.0905648 0 0 1 13.228346,6.138617 Z" /><path
     id="ellipse7-2"
     style="display:none;fill:url(#radialGradient43);stroke-width:1.04166"
     inkscape:label="rim"
     d="m 11.822824,4.7210183 a 7.0901709,7.0900044 0 0 0 -7.0898433,7.0898427 7.0901709,7.0900044 0 0 0 7.0898433,7.089843 7.0901709,7.0900044 0 0 0 7.089844,-7.089843 7.0901709,7.0900044 0 0 0 -7.089844,-7.0898427 z m 0,0.65625 a 6.4339209,6.4337697 0 0 1 6.433594,6.4335927 6.4339209,6.4337697 0 0 1 -6.433594,6.433593 6.4339209,6.4337697 0 0 1 -6.4335933,-6.433593 6.4339209,6.4337697 0 0 1 6.4335933,-6.4335927 z"
     transform="translate(1.4173231,1.4175978)" /></g><g
   id="g25"
   inkscape:label="fg"
   transform="matrix(0.96000002,0,0,0.96000002,-1.3606302,-1.3608939)"
   style="display:inline;stroke-width:1.04167"><ellipse
     fill="#0a0a0a"
     cx="13.228346"
     cy="13.228621"
     id="ellipse8"
     rx="11.232184"
     ry="11.231923"
     style="display:inline;fill:url(#linearGradient9);stroke-width:1.04165"
     inkscape:label="subsurface" /><path
     id="path31-3"
     style="display:inline;fill:#0f0903;fill-opacity:0.721569;stroke:none;stroke-width:2.08333;stroke-linejoin:round;stroke-dasharray:none;stroke-opacity:1;paint-order:stroke fill markers"
     inkscape:label="arrow"
     d="m 13.227625,1.9974317 -1.365153,4.2744951 c 0,0 0.0061,3.0626791 0.0061,4.5939122 0,0.21811 0.174549,0.394694 0.392659,0.394694 h 1.93278 c 0.218111,0 0.394694,-0.176584 0.394694,-0.394694 0.0012,-1.5319589 -0.0061,-4.5959467 -0.0061,-4.5959467 z"
     sodipodi:nodetypes="ccsssscc" /></g></svg>
